<?xml version="1.0" encoding="UTF-8"?><svg id="Layer_1" xmlns="http://www.w3.org/2000/svg" viewBox="0 0 699.82 176.96"><path d="M193.25,0v135.86h-20.04c-37.43,0-67.93-30.51-67.93-67.93S135.78,0,173.21,0h20.04Z"/><path d="M20.04,0C57.47,0,87.97,30.51,87.97,67.94s-30.51,67.93-67.93,67.93H0V0h20.04Z"/><path d="M623.66,41.93l26.83,60.33,26.83-60.33h22.5c-4.57,10.23-53.29,119.09-53.34,119.2-5.99,13.42-21.78,19.5-35.17,13.52h0l-7.13-3.18h-.04s8.31-18.68,8.31-18.68l2.96,1.32c5.52,2.46,12.03-.04,14.5-5.58.02-.05,9.34-21.02,9.34-21.02h0l-38.09-85.6h22.5,0Z"/><rect x="469.33" y=".02" width="20.59" height="135.85"/><path d="M554.79,41.85c-10.01,0-19.29,3.14-26.92,8.48V.02h-20.64v135.85h20.64v-8.35c7.64,5.34,16.91,8.48,26.92,8.48,25.96,0,47.08-21.12,47.08-47.08s-21.12-47.08-47.08-47.08h0ZM554.79,117.14c-12.59,0-23.18-8.2-26.92-19.44-.94-2.82-1.46-5.82-1.46-8.94s.53-6.14,1.46-8.96c3.77-11.31,14.45-19.42,26.92-19.42,15.58,0,28.38,12.81,28.38,28.38s-12.81,28.38-28.38,28.38h0Z"/><path d="M408.93,41.85c-25.96,0-47.08,21.12-47.08,47.08s21.12,47.08,47.08,47.08,47.07-21.12,47.07-47.08-21.12-47.08-47.07-47.08ZM408.93,117.14c-15.75,0-28.38-12.81-28.38-28.38s12.81-28.38,28.38-28.38,28.38,12.81,28.38,28.38-12.81,28.38-28.38,28.38Z"/><path d="M283.47,0h-49.07v135.87h49.07c37.46,0,67.93-30.48,67.93-67.94S320.92,0,283.47,0ZM283.47,115.27h-28.47V20.6h28.47c26.08,0,47.34,21.26,47.34,47.34s-21.25,47.34-47.34,47.34h0Z"/></svg>