<?xml version="1.0" encoding="UTF-8"?><svg id="a" xmlns="http://www.w3.org/2000/svg" viewBox="0 0 107.9998 50.0025">
<title>Maroc Telecom 2025 logo - Brandlogos.net</title><path d="M22.138,7.5157c-1.6827,0-2.9736.5899-3.8473,1.7535-.3546-.4994-.7857-.8919-1.284-1.1752-.6791-.3856-1.5042-.5783-2.4567-.5783-.9363,0-1.7522.1835-2.4289.5458-.6072.3252-1.0939.785-1.4485,1.3633h-.16v-1.7071h-3.1427v3.075h1.0731v8.9767h2.9944v-7.0443c0-.8245.1993-1.4493.5933-1.8604.394-.4111.9757-.6108,1.7776-.6108,1.6525,0,2.3895.7618,2.3895,2.4689v7.0466h2.9944v-7.0443c0-1.7071.7324-2.4689,2.371-2.4689,1.6525,0,2.3895.7618,2.3895,2.4689v7.0466h2.9944v-7.3439c0-1.5027-.4288-2.7081-1.277-3.586-.8529-.8802-2.0396-1.3262-3.5321-1.3262Z" style="fill:#e00800;"/><path d="M38.4311,12.205c0-1.5027-.4659-2.6802-1.386-3.4978-.9038-.8036-2.1994-1.2101-3.8496-1.2101-1.4462,0-2.6583.3344-3.6039.9917-.9711.6759-1.5691,1.6397-1.773,2.8614l-.0904.5388h2.9874l.0928-.3391c.1668-.6038.591-1.4051,2.35-1.4051,1.6386,0,2.371.6526,2.371,2.1158v.0395h-3.3328c-1.4485,0-2.5865.3321-3.3837.9848-.8251.6758-1.2423,1.6304-1.2423,2.8335,0,1.1497.4172,2.0949,1.2423,2.808.8042.6967,1.9051,1.0498,3.2725,1.0498.9456,0,1.7938-.1882,2.5216-.5598.6559-.3344,1.1959-.7873,1.6061-1.3494h.0742v1.7071h3.1427v-3.0774h-.9989v-4.4918ZM35.5294,14.7435v.0395c0,.4668-.1321.8849-.401,1.2797-.2781.4065-.6489.72-1.1356.9593-.489.2392-1.0383.36-1.6293.36-.6327,0-1.1217-.1324-1.4578-.3949-.3083-.2415-.4519-.5458-.4519-.9615,0-.5969.2132-1.2821,1.8703-1.2821h3.2053Z" style="fill:#e00800;"/><path d="M48.5986,7.6273h-1.3675c-.9548,0-1.8031.216-2.5192.6387-.6397.3786-1.138.8919-1.4857,1.5305h-.0324v-2.0763h-3.1427v3.075h1.073v8.9767h2.9759v-6.2686c0-1.001.2573-1.7674.7857-2.3388.5191-.562,1.2492-.8338,2.2342-.8338h1.4787v-2.7034Z" style="fill:#e00800;"/><path d="M58.6503,8.259c-.9109-.5063-2.0094-.7618-3.2679-.7618-1.2214,0-2.3084.2601-3.2308.7711-.9317.5179-1.6618,1.2565-2.1716,2.1949-.503.929-.7602,2.0322-.7602,3.2817,0,1.2472.2549,2.3505.7602,3.2795.5098.9406,1.2399,1.6792,2.1716,2.1948.9224.5133,2.0094.7711,3.2308.7711,1.2469,0,2.3431-.2555,3.2586-.7618.9271-.511,1.6525-1.2519,2.1554-2.1995.496-.936.7486-2.0415.7486-3.2864,0-1.2588-.2526-2.3667-.7486-3.298-.5029-.9383-1.226-1.6746-2.1461-2.1855ZM58.5506,13.7448c0,1.1242-.2804,2.0021-.8343,2.6106-.5493.6039-1.3118.8965-2.3339.8965-1.0105,0-1.7707-.295-2.3269-.8988-.5586-.6062-.8413-1.4841-.8413-2.6083s.2827-2.002.8413-2.6082c.5562-.6039,1.3164-.8988,2.3269-.8988,1.0221,0,1.7869.2903,2.3362.8895.5516.6016.832,1.4818.832,2.6175Z" style="fill:#e00800;"/><path d="M71.0263,14.9711l-.0904.3461c-.343,1.3215-1.2075,1.937-2.7186,1.937-.9711,0-1.7011-.2926-2.2388-.8942-.5424-.6085-.8182-1.4864-.8182-2.6128,0-1.1381.2758-2.0207.8158-2.6222.5377-.5969,1.2701-.8872,2.2389-.8872.73,0,1.321.1463,1.7544.432.4219.281.7162.7153.8947,1.3308l.0973.3321h3.0129l-.1274-.562c-.3083-1.3657-.9665-2.4341-1.9608-3.1727-.985-.7316-2.2203-1.1009-3.6711-1.1009-1.2098,0-2.2829.2601-3.1891.7734-.9131.5179-1.627,1.2565-2.123,2.1994-.489.9291-.7393,2.0299-.7393,3.2772s.2526,2.3481.7486,3.2771c.5029.9406,1.2191,1.6792,2.1323,2.1948.9038.5133,1.9723.7734,3.1705.7734,1.5041,0,2.7696-.3879,3.7615-1.152.9989-.7711,1.6525-1.8859,1.9469-3.3143l.1135-.5551h-3.0106Z" style="fill:#e00800;"/><path d="M.6719,45.0274c9.945,2.225,20.2771,3.5698,32.155,4.4337,45.4862,3.2958,71.3139-8.8303,71.3139-26.2147C104.1408,2.1066,72.8295-.0325,68.8408.0023c-.7393-.0255-.8436.3159-.3268.4506,6.1279,1.6862,12.0703,3.8972,16.3047,7.8154,3.7337,3.4559,6.5589,7.4322,6.5589,14.3487,0,4.2248-2.3756,9.2066-6.7049,12.8275-8.0399,6.7122-24.2982,11.5036-51.6441,11.1413-9.3633-.1254-20.0291-.9871-32.1134-2.4503-1.1565-.1208-1.1936.6921-.2434.8919Z" style="fill:#e00800;"/><path d="M106.5348,0c.809,0,1.465.6573,1.465,1.4679v15.1384c0,.0674-.102.0837-.114.0163-1.376-8.4843-8.8969-14.3302-16.4919-16.5111-.0672-.0163-.0533-.1115.0163-.1115h15.1246Z" style="fill:#e00800;"/><path d="M11.3122,27.8265h2.2713v-1.9394h-2.2852v-2.6268h-2.2829v2.6268h-1.6455v1.9394h1.6316v5.7274c0,.5737.1669,1.0196.496,1.3239.3199.2973.7625.4482,1.3164.4482h3.006v-1.9672h-2.503v-5.5323h-.0047Z" style="fill:#e00800;"/><path d="M21.5006,32.1975c-.1298.4088-.3569.7061-.6953.9105-.35.2137-.795.3205-1.3187.3205-.7649,0-1.3536-.216-1.7985-.6643-.3778-.3785-.6119-.8988-.7023-1.5491h6.9043v-.9941c0-.9058-.1854-1.7047-.5493-2.3736-.3685-.6759-.8946-1.2054-1.5644-1.5747-.6629-.3646-1.4532-.5504-2.3478-.5504-.9363,0-1.766.1997-2.4729.5968-.7115.3995-1.2724.9709-1.6641,1.6978-.387.7224-.584,1.5817-.584,2.5549s.197,1.8394.584,2.5733c.3917.7456.9572,1.3262,1.6803,1.7303.7162.3995,1.5667.6039,2.5309.6039,1.1009,0,2.0441-.2694,2.7997-.8036.7671-.5411,1.2747-1.3146,1.5065-2.2947l.0996-.4204h-2.3339l-.0741.2369ZM17.1086,29.3431c.1437-.4459.3778-.7966.7069-1.0684.4242-.3483.9479-.5179,1.5992-.5179.6559,0,1.1635.1672,1.5528.511.306.2717.5099.6247.6142,1.0753h-4.4731Z" style="fill:#e00800;"/><path d="M27.1,22.408h-2.306v12.8972h2.306v-12.8972Z" style="fill:#e00800;"/><path d="M34.7806,32.1975c-.1298.4088-.3569.7061-.6953.9105-.3499.2137-.7949.3205-1.3187.3205-.7648,0-1.3535-.216-1.7985-.6643-.3778-.3785-.6119-.8988-.7023-1.5491h6.9043v-.9941c0-.9058-.1854-1.7047-.5493-2.3736-.3685-.6759-.8946-1.2054-1.5644-1.5747-.6628-.3646-1.4531-.5504-2.3478-.5504-.9363,0-1.766.1997-2.4729.5968-.7115.3995-1.2724.9709-1.6641,1.6978-.387.7224-.584,1.5794-.584,2.5549,0,.9731.197,1.8394.584,2.5733.3917.7456.9572,1.3262,1.6803,1.7303.7162.3995,1.5668.6039,2.5309.6039,1.1009,0,2.0442-.2694,2.7997-.8036.7672-.5411,1.2747-1.3146,1.5065-2.2947l.0997-.4204h-2.3316l-.0765.2369ZM30.3887,29.3431c.1437-.4459.3777-.7966.7092-1.0684.4241-.3483.9479-.5179,1.5992-.5179.6558,0,1.1634.1672,1.5528.511.3059.2717.5099.6247.6141,1.0753h-4.4753Z" style="fill:#e00800;"/><path d="M44.9506,31.8375c-.2712,1.0452-.9549,1.5329-2.1531,1.5329-.7671,0-1.3465-.2322-1.7707-.7084-.4287-.4807-.6466-1.1752-.6466-2.0624,0-.8965.2179-1.5933.6443-2.0694.4241-.4715,1.0035-.7014,1.773-.7014.5771,0,1.0429.1161,1.386.3437.336.223.5678.5691.7115,1.0568l.0718.2439h2.32l-.0927-.4158c-.2411-1.066-.7556-1.8998-1.5297-2.4735-.7671-.5713-1.7312-.8593-2.8646-.8593-.9456,0-1.7822.2044-2.4891.6038-.7115.4042-1.2701.9825-1.6571,1.7164-.3825.7246-.5771,1.5863-.5771,2.5595s.197,1.8348.584,2.5594c.3917.7339.9526,1.3099,1.6641,1.7141.7069.4018,1.5389.6038,2.4752.6038,1.1751,0,2.1624-.3019,2.9365-.8988.7787-.6015,1.2909-1.4725,1.518-2.5873l.0835-.4088h-2.32l-.0672.2508Z" style="fill:#e00800;"/><path d="M55.5863,26.3191c-.7115-.3948-1.569-.5945-2.5517-.5945-.9525,0-1.8031.202-2.5239.6015-.7277.4041-1.2956.9801-1.6942,1.7141-.394.7246-.5933,1.5886-.5933,2.5617,0,.9755.1993,1.8372.5933,2.5618.3963.7339.9665,1.3099,1.6942,1.7141.7208.3994,1.5691.6015,2.5239.6015.9734,0,1.8286-.1997,2.5448-.5946.7231-.3994,1.2886-.9754,1.6826-1.7163.3871-.7293.5841-1.5933.5841-2.5665,0-.9824-.197-1.8487-.5841-2.5757-.3963-.7339-.9595-1.3076-1.6757-1.7071ZM55.5377,30.6019c0,.8873-.2225,1.5817-.6582,2.0601-.4358.4785-1.0383.7108-1.8449.7108-.7996,0-1.3998-.2323-1.8402-.7108-.4403-.4807-.6652-1.1728-.6652-2.0601s.2249-1.5793.6652-2.0601c.4404-.4784,1.0406-.7107,1.8402-.7107.8066,0,1.4115.23,1.8472.7038.4357.4738.6559,1.1705.6559,2.067Z" style="fill:#e00800;"/><path d="M73.0428,26.772c-.6628-.6875-1.5899-1.0335-2.7557-1.0335-1.3233,0-2.3361.4668-3.0175,1.3912-.2805-.3995-.6212-.713-1.0152-.9383-.5284-.2996-1.1727-.4506-1.9166-.4506-.7301,0-1.3675.144-1.8959.425-.4751.2555-.8575.6155-1.1333,1.0731h-.1576v-1.3378h-2.422v2.369h.8414v7.0396h2.306v-5.5044c0-.6527.1576-1.1474.4705-1.4725.3129-.3252.7741-.4854,1.4091-.4854,1.2933,0,1.8959.6224,1.8959,1.9556v5.5044h2.306v-5.5044c0-1.3355.598-1.9556,1.8796-1.9556,1.2933,0,1.8959.6224,1.8959,1.9556v5.5044h2.306v-5.7367c0-1.1752-.336-2.1158-.9966-2.7987Z" style="fill:#e00800;"/></svg>