<?xml version="1.0" encoding="UTF-8" standalone="no"?>
<svg
   version="1.1"
   width="515.30347"
   height="700"
   id="svg906"
   viewBox="0 0 515.30347 700"
   sodipodi:docname="Logo Fédération Marocaine Football.svg"
   inkscape:version="1.1.1 (c3084ef, 2021-09-22)"
   xmlns:inkscape="http://www.inkscape.org/namespaces/inkscape"
   xmlns:sodipodi="http://sodipodi.sourceforge.net/DTD/sodipodi-0.dtd"
   xmlns="http://www.w3.org/2000/svg"
   xmlns:svg="http://www.w3.org/2000/svg">
  <defs
     id="defs910" />
  <sodipodi:namedview
     id="namedview908"
     pagecolor="#ffffff"
     bordercolor="#666666"
     borderopacity="1.0"
     inkscape:pageshadow="2"
     inkscape:pageopacity="0.0"
     inkscape:pagecheckerboard="0"
     showgrid="false"
     inkscape:zoom="0.99280649"
     inkscape:cx="216.05419"
     inkscape:cy="334.40555"
     inkscape:window-width="1440"
     inkscape:window-height="900"
     inkscape:window-x="0"
     inkscape:window-y="0"
     inkscape:window-maximized="0"
     inkscape:current-layer="svg906" />
  <g
     id="g2304">
    <path
       d="m 257.65273,3e-5 h 0.0136 v 0.0156 c 71.13983,0.004 135.55402,28.84641 182.16877,75.46525 46.61048,46.61261 75.44639,111.01436 75.45475,182.14194 h 0.0136 v 0.0311 0.0136 h -0.0136 c -0.004,71.14003 -28.84641,135.55422 -75.46505,182.16897 -46.61067,46.60853 -111.01242,75.44659 -182.14195,75.45475 v 0.0136 h -0.0301 -0.0136 v -0.0136 C 186.49929,515.28724 122.0851,486.445 75.47035,439.82617 28.86201,393.2155 0.02396,328.81375 0.0156,257.68422 H 0 v -0.0313 -0.0136 H 0.0156 C 0.0196,186.49948 28.86201,122.0851 75.48065,75.47035 122.09132,28.86201 186.49501,0.02396 257.6226,0.0156 V 0 Z"
       style="fill:#d2a16a;fill-rule:evenodd;stroke-width:1.94444"
       id="path824" />
    <path
       d="m 257.66732,7.31814 v 0.0136 h -0.0146 -0.0311 V 7.31814 C 188.53707,7.32414 125.9666,35.35178 80.66337,80.65306 35.35179,125.96036 7.32029,188.54153 7.31815,257.63834 h 0.0156 v 0.0136 0.0313 h -0.0156 c 0.006,69.0865 28.03578,131.65717 73.33472,176.95825 45.3075,45.31159 107.88848,73.34328 176.98528,73.34522 v -0.0136 h 0.0136 0.0311 v 0.0136 c 69.0865,-0.006 131.65717,-28.03577 176.95825,-73.33472 45.31159,-45.3075 73.34309,-107.88847 73.34523,-176.98547 h -0.0136 v -0.0136 -0.0311 h 0.0136 C 507.98033,188.53726 479.95269,125.9666 434.6516,80.66337 389.3441,35.35179 326.76313,7.32029 257.66633,7.31815 Z"
       style="fill:#16a171;fill-rule:evenodd;stroke-width:1.94444"
       id="path826" />
    <path
       d="m 221.65037,609.44764 h -28.66539 -3.66625 v -3.65167 -241.56183 c -7.66947,-4.92372 -14.7735,-10.65186 -21.18958,-17.06794 -22.89155,-22.8937 -37.058,-54.53564 -37.06636,-89.48198 h -0.0136 v -0.0313 -0.0136 h 0.0136 c 0.004,-34.95878 14.17694,-66.60889 37.07686,-89.509 22.89583,-22.89156 54.53545,-37.0582 89.48197,-37.06636 v -0.0136 h 0.0311 0.0136 v 0.0136 c 34.96091,0.004 66.60888,14.17675 89.509,37.07686 22.89155,22.89583 37.058,54.53544 37.06636,89.48197 h 0.0136 v 0.0311 0.0136 h -0.0136 c -0.004,34.95897 -14.17481,66.60909 -37.07686,89.509 -6.41181,6.412 -13.51584,12.13392 -21.17909,17.0555 v 286.84017 3.65167 h -3.66625 -28.66539 v 41.62452 3.65167 h -3.66644 -32.34 -3.66645 v -3.65167 -41.62452 h -28.66538 -3.66645 v -3.65167 z"
       style="fill:#d2a16a;fill-rule:evenodd;stroke-width:1.94444"
       id="path828" />
    <path
       d="m 257.66732,138.3665 v 0.0136 h -0.0146 -0.0311 v -0.0136 c -32.9035,0.006 -62.71202,13.36417 -84.29847,34.94653 -21.59053,21.59053 -34.95469,51.41169 -34.95683,84.32531 h 0.0136 v 0.0136 0.0313 h -0.0136 c 0.006,32.90331 13.36416,62.71397 34.94653,84.29847 6.97511,6.97725 14.819,13.08767 23.33838,18.17142 v 241.99 h 25.0075 V 371.39845 c 11.35653,3.59566 23.44048,5.53894 35.97942,5.54108 v -0.0136 h 0.0136 0.0311 v 0.0136 c 1.21586,0 2.42356,-0.0251 3.63106,-0.0624 v 315.81939 h 25.0075 v -319.2383 c 21.40755,-5.28753 40.55197,-16.3592 55.65992,-31.4652 21.59266,-21.59053 34.95469,-51.40955 34.95683,-84.3255 h -0.0136 v -0.0136 -0.0311 h 0.0136 c -0.006,-32.9035 -13.36417,-62.71203 -34.94653,-84.29847 -21.59053,-21.59053 -51.40955,-34.95489 -84.3253,-34.95684 z"
       style="fill:#e30016;fill-rule:evenodd;stroke-width:1.94444"
       id="path830" />
    <path
       d="m 228.98307,380.97581 v 266.4445 h 25.0075 V 384.18492 c -8.57753,-0.24539 -16.94117,-1.3407 -25.0075,-3.20911 z"
       style="fill:#16a171;fill-rule:evenodd;stroke-width:1.94444"
       id="path834" />
    <path
       d="m 293.64673,379.04906 v 268.37125 h 25.0075 V 368.59884 c -7.86469,4.3293 -16.23241,7.85438 -25.0075,10.45022 z"
       style="fill:#16a171;fill-rule:evenodd;stroke-width:1.94444"
       id="path836" />
    <path
       d="m 257.65273,134.71464 c 2.62287,0 5.21889,0.0916 7.80034,0.25161 5.46408,22.62964 18.69739,43.51161 39.00341,58.26411 20.31653,14.76086 44.2682,20.88392 67.49031,19.07364 1.90789,4.80317 3.52081,9.75411 4.81989,14.83164 -19.85103,12.18564 -35.62397,31.23653 -43.3827,55.1217 -7.76086,23.87466 -6.19577,48.53916 2.6915,70.05911 -3.99894,3.31722 -8.21605,6.38069 -12.61808,9.17836 -17.7205,-15.106 -40.69528,-24.21767 -65.80467,-24.21767 -25.10938,0 -48.08416,9.11167 -65.80466,24.21767 -4.40203,-2.79553 -8.61914,-5.86328 -12.61809,-9.17836 8.88728,-21.51995 10.45237,-46.18445 2.6915,-70.05911 -7.75872,-23.88731 -23.53166,-42.93606 -43.38269,-55.1217 1.29694,-5.07753 2.912,-10.03042 4.81989,-14.83164 23.22211,1.81028 47.17378,-4.31278 67.4903,-19.07364 20.30817,-14.7525 33.54148,-35.63447 39.00342,-58.26411 2.58145,-0.16003 5.17747,-0.25161 7.80033,-0.25161 z"
       style="fill:#ffffff;fill-rule:evenodd;stroke-width:1.94444"
       id="path838" />
  </g>
  <g
     id="g2287">
    <g
       id="g2213">
      <path
         style="fill:#1b1918;fill-rule:evenodd;stroke-width:1.94444"
         d="m 177.29915,374.84031 -12.99628,16.63141 -11.40222,-8.91022 2.19897,-2.81614 8.04339,6.28503 3.07397,-3.93439 -6.94594,-5.42461 2.20111,-2.81633 6.94381,5.42675 5.52241,-7.06864 z"
         id="path832" />
      <path
         id="path1341"
         style="fill:#1b1918;fill-rule:evenodd;stroke-width:1.94444"
         d="m 376.47852,335.7832 -2.72071,3.60938 2.78516,4.27539 -5.08008,6.74023 -4.93945,-1.41406 -2.79102,3.70313 21.94141,5.95312 2.71094,-3.59961 z m 2.11132,11.07227 4.53907,6.99023 -8.00586,-2.39258 z" />
      <path
         id="path1335"
         style="fill:#1b1918;fill-rule:evenodd;stroke-width:1.94444"
         d="m 385.94922,319.37109 -3.5918,6.22266 c -1.34264,2.36113 -2.15636,3.87283 -2.44531,4.52344 -0.45713,1.04553 -0.64535,2.03915 -0.56445,2.97851 0.0832,0.93742 0.40739,1.82854 0.96875,2.66602 0.56311,0.84175 1.26249,1.50253 2.09179,1.98047 1.05584,0.60897 2.14683,0.84289 3.27539,0.69531 1.12253,-0.14759 2.17246,-0.6885 3.13477,-1.61133 -0.0957,0.99342 0.0805,1.9297 0.52734,2.80664 0.44897,0.87092 1.10479,1.55612 1.95899,2.05078 0.78575,0.45325 1.61083,0.67988 2.46093,0.67188 0.85421,-0.006 1.62933,-0.17867 2.33594,-0.51758 0.70681,-0.34281 1.32541,-0.83042 1.85547,-1.47461 0.53414,-0.63817 1.21739,-1.68439 2.05078,-3.13086 l 4.21875,-7.30859 z m 0.94922,5.47266 4.88476,2.82031 -1.71875,2.97852 c -0.96853,1.67727 -1.68487,2.72386 -2.14843,3.125 -0.4655,0.40114 -0.96764,0.62017 -1.50586,0.66797 -0.53628,0.0436 -1.07628,-0.0883 -1.625,-0.4043 -0.64847,-0.37411 -1.06686,-0.84863 -1.25586,-1.41602 -0.18297,-0.56739 -0.17149,-1.15485 0.0469,-1.76171 0.13086,-0.399 0.58254,-1.26533 1.35156,-2.59766 z m 7.92773,4.57813 4.22461,2.43945 -1.22266,2.11914 c -1.00176,1.73542 -1.6312,2.77439 -1.88476,3.11719 -0.42603,0.56953 -0.90727,0.91123 -1.44141,1.02343 -0.53219,0.10616 -1.0791,-0.006 -1.64648,-0.33398 -0.59034,-0.34086 -0.96339,-0.79571 -1.11719,-1.36523 -0.15167,-0.57147 -0.0839,-1.19187 0.20703,-1.86524 0.16002,-0.37411 0.65488,-1.27849 1.48633,-2.7168 z" />
      <path
         id="path1329"
         style="fill:#1b1918;fill-rule:evenodd;stroke-width:1.94444"
         d="m 404.96289,281.18555 c -1.81357,0.0267 -3.43374,0.46953 -4.86133,1.32812 -2.28005,1.37394 -3.77581,3.58886 -4.48242,6.65039 -0.69844,3.01583 -0.31226,5.64436 1.14063,7.88282 1.46106,2.23864 3.84862,3.74268 7.16992,4.50976 3.3462,0.77311 6.17003,0.46861 8.46875,-0.91992 2.30067,-1.38425 3.79745,-3.59068 4.49804,-6.6211 0.38655,-1.67513 0.46041,-3.21176 0.21094,-4.62304 -0.17869,-1.05369 -0.59408,-2.0822 -1.23633,-3.08203 -0.64633,-1.00178 -1.44167,-1.85552 -2.37695,-2.56641 -1.27828,-0.95608 -2.96365,-1.67384 -5.05859,-2.1582 -1.22683,-0.28292 -2.38452,-0.4164 -3.47266,-0.40039 z m 0.18945,4.38672 c 0.74966,0.0132 1.56144,0.12043 2.4336,0.32226 2.37144,0.54678 4.01412,1.48144 4.94531,2.79492 0.93314,1.32183 1.20156,2.83617 0.80664,4.55078 -0.39491,1.70858 -1.29081,2.94796 -2.6875,3.71485 -1.40078,0.76067 -3.27789,0.87472 -5.63281,0.33008 -2.38602,-0.55086 -4.05052,-1.49561 -4.9961,-2.83008 -0.95195,-1.33836 -1.23189,-2.83394 -0.85156,-4.48633 0.38247,-1.65647 1.2973,-2.88345 2.74805,-3.68359 0.90672,-0.4962 1.98494,-0.73493 3.23437,-0.71289 z" />
      <path
         id="path1325"
         style="fill:#1b1918;fill-rule:evenodd;stroke-width:1.94444"
         d="m 409.19141,256.95898 c -2.78739,0.009 -5.07555,0.76127 -6.86133,2.26172 -2.037,1.71247 -3.16836,4.13547 -3.38672,7.26758 -0.21603,3.09069 0.57398,5.62644 2.35937,7.61133 1.79375,1.9808 4.38686,3.09306 7.78711,3.33203 3.42514,0.23898 6.16932,-0.50517 8.22071,-2.23437 2.05761,-1.72705 3.19003,-4.14315 3.40625,-7.24415 0.12056,-1.71674 -0.048,-3.24646 -0.51563,-4.5996 -0.34086,-1.01208 -0.90958,-1.96412 -1.69922,-2.85157 -0.79605,-0.88744 -1.71478,-1.60715 -2.75195,-2.16015 -1.41108,-0.74394 -3.18907,-1.19013 -5.33398,-1.3418 -0.41855,-0.0291 -0.82642,-0.0423 -1.22461,-0.041 z m 0.18945,4.39454 c 0.28097,0.002 0.57142,0.0144 0.86914,0.0351 2.42764,0.17053 4.1978,0.83678 5.32422,1.98828 1.12661,1.15773 1.63051,2.61311 1.50781,4.36719 -0.12269,1.75 -0.81461,3.11509 -2.07422,4.08984 -1.26369,0.9728 -3.09866,1.37347 -5.51172,1.20508 -2.44202,-0.17053 -4.23186,-0.84156 -5.375,-2.01172 -1.14936,-1.17231 -1.66353,-2.60696 -1.54492,-4.29882 0.11841,-1.69594 0.82928,-3.05005 2.13672,-4.06641 1.14572,-0.88575 2.70121,-1.32418 4.66797,-1.30859 z" />
      <path
         id="path1317"
         style="fill:#1b1918;fill-rule:evenodd;stroke-width:1.94444"
         d="m 403.09961,183.73242 -19.12695,8.91992 3.38476,7.26368 c 0.66714,1.42781 1.33267,2.50908 2.00196,3.23242 0.89579,0.96852 1.82657,1.63619 2.79101,2 1.274,0.4896 2.72126,0.64689 4.33203,0.47656 1.32398,-0.14136 2.77459,-0.57886 4.34375,-1.3125 1.79589,-0.83767 3.20325,-1.74737 4.23633,-2.73242 1.02453,-0.98933 1.77455,-2.08034 2.24219,-3.27539 0.47387,-1.19097 0.61339,-2.42894 0.41797,-3.70508 -0.14331,-0.94986 -0.58828,-2.21667 -1.33008,-3.80664 z m -1.43555,5.37305 0.80664,1.73047 c 0.73578,1.57753 1.17011,2.66125 1.29688,3.25781 0.17889,0.79392 0.16012,1.52921 -0.0664,2.21094 -0.22225,0.67141 -0.67057,1.32528 -1.34179,1.95703 -0.67337,0.62766 -1.74079,1.28843 -3.22071,1.97851 -1.47564,0.68795 -2.7106,1.10297 -3.68555,1.24219 -0.97883,0.13728 -1.75291,0.0905 -2.31835,-0.14844 -0.56739,-0.23916 -1.07485,-0.63859 -1.51954,-1.18945 -0.34923,-0.42389 -0.77236,-1.1755 -1.27539,-2.25195 l -1.34179,-2.88281 z" />
      <path
         id="path1307"
         style="fill:#1b1918;fill-rule:evenodd;stroke-width:1.94444"
         d="m 348.04297,121.83203 -18.8418,12.57227 3.70508,2.59375 4.17578,-2.93164 6.91211,4.83984 -1.24219,4.98633 3.79883,2.66015 5.1836,-22.13671 z m -1.01953,5.29688 -2.11328,8.08203 -4.7168,-3.30274 z" />
      <path
         id="path1301"
         style="fill:#1b1918;fill-rule:evenodd;stroke-width:1.94444"
         d="m 301.05078,100.55664 c -0.36909,0.009 -0.73156,0.0394 -1.08594,0.0898 -1.05991,0.14136 -2.10045,0.52009 -3.12304,1.125 -1.02258,0.61309 -1.90644,1.37868 -2.64844,2.28907 -0.99964,1.24288 -1.77495,2.904 -2.33203,4.98242 -0.86878,3.24236 -0.6579,6.02936 0.63476,8.36133 1.29481,2.32575 3.45574,3.8962 6.49024,4.70898 2.99075,0.80228 5.63169,0.51065 7.91797,-0.86523 2.28822,-1.38212 3.87659,-3.71372 4.75781,-7.00586 0.88958,-3.31936 0.68225,-6.15168 -0.62305,-8.4961 -1.30317,-2.34869 -3.4595,-3.92214 -6.46289,-4.72656 -1.24542,-0.33515 -2.41811,-0.49136 -3.52539,-0.46289 z m 1.08594,3.75977 c 0.49661,0.0112 1.01036,0.0883 1.54101,0.23047 1.69595,0.45519 2.90204,1.39482 3.61915,2.8164 0.71282,1.42587 0.76048,3.30652 0.13476,5.64063 -0.63389,2.36522 -1.63637,3.99444 -3.00195,4.89453 -1.37161,0.90397 -2.87586,1.13184 -4.51367,0.69336 -1.64402,-0.44061 -2.83771,-1.39527 -3.58594,-2.87305 -0.74394,-1.47564 -0.81267,-3.37261 -0.19336,-5.67969 0.6298,-2.35064 1.62202,-3.9604 2.96875,-4.8457 0.92881,-0.60878 1.9387,-0.90154 3.03125,-0.87695 z" />
      <path
         id="path1297"
         style="fill:#1b1918;fill-rule:evenodd;stroke-width:1.94444"
         d="m 270.98438,95.357422 -2.20899,20.992188 4.24219,0.44531 0.92187,-8.76367 0.85547,0.0898 c 0.97689,0.10383 1.67713,0.25736 2.10938,0.45899 0.43439,0.20787 0.82795,0.54231 1.18554,1.00781 0.35544,0.46764 0.99141,1.57459 1.91016,3.32031 l 2.58398,4.89258 5.06641,0.53125 -2.13477,-4.36328 c -0.84194,-1.73969 -1.52092,-2.95763 -2.05078,-3.66016 -0.52792,-0.70253 -1.22747,-1.37001 -2.08789,-2.0039 1.86842,-0.0686 3.32861,-0.57503 4.35743,-1.5 1.03093,-0.92905 1.63433,-2.18261 1.80078,-3.75586 0.13086,-1.24289 -0.0591,-2.37513 -0.56836,-3.408205 -0.50906,-1.02667 -1.25572,-1.781265 -2.23047,-2.265625 -0.97883,-0.48202 -2.58755,-0.843048 -4.83008,-1.080078 z m 3.86718,4 3.30274,0.345703 c 1.72297,0.18084 2.75129,0.315385 3.08593,0.396485 0.67763,0.18919 1.18136,0.51638 1.51172,0.99219 0.33056,0.47386 0.46162,1.06078 0.38672,1.76953 -0.0644,0.63175 -0.26514,1.13847 -0.5957,1.52929 -0.33036,0.39064 -0.75761,0.64721 -1.2793,0.76563 -0.52578,0.11861 -1.80711,0.0655 -3.83984,-0.14648 l -3.13086,-0.33008 z" />
      <path
         id="path1293"
         style="fill:#1b1918;fill-rule:evenodd;stroke-width:1.94444"
         d="m 257.69727,94.503906 -4.50586,0.07813 -7.85352,21.246094 4.52149,-0.0781 1.65429,-4.82617 8.4375,-0.14844 1.92578,4.76368 4.63672,-0.0801 z m -2.22071,4.962891 3.04492,7.781253 -5.75976,0.0996 z" />
      <path
         id="path1283"
         style="fill:#1b1918;fill-rule:evenodd;stroke-width:1.94444"
         d="m 159.49805,127.33008 -3.55274,2.77539 6.51563,21.69336 3.5625,-2.78321 -1.58203,-4.8496 6.65039,-5.19727 4.40234,2.64844 3.65625,-2.85742 z m 1.21289,5.30078 7.11523,4.38281 -4.53711,3.54492 z" />
      <path
         id="path1277"
         style="fill:#1b1918;fill-rule:evenodd;stroke-width:1.94444"
         d="m 134.13477,156.12891 c -0.33417,0.01 -0.66772,0.0404 -1,0.0879 -2.65825,0.37411 -4.89761,1.81884 -6.72461,4.33593 -1.01208,1.39241 -1.67994,2.77713 -2,4.17383 -0.24736,1.0393 -0.26982,2.148 -0.0703,3.32032 0.20572,1.17425 0.60144,2.27056 1.1875,3.29101 0.80014,1.37802 2.0728,2.6992 3.8125,3.96289 2.71639,1.97245 5.39557,2.77646 8.03516,2.4043 2.6355,-0.37411 4.87699,-1.83127 6.72266,-4.3711 1.81864,-2.50658 2.49481,-5.07579 2.03125,-7.70507 -0.46958,-2.62908 -2.0797,-4.94763 -4.83789,-6.95118 -2.43146,-1.76587 -4.8171,-2.61848 -7.15625,-2.54882 z m -0.5293,4.13867 c 1.5102,-0.0521 3.18018,0.58705 5.01367,1.91797 1.98081,1.44025 3.14511,2.95635 3.49414,4.55468 0.35136,1.60456 0.0268,3.0909 -0.9707,4.46485 -0.99983,1.37375 -2.3185,2.14802 -3.9668,2.31836 -1.64403,0.16216 -3.43812,-0.45236 -5.37109,-1.85742 -1.96836,-1.42994 -3.11599,-2.93438 -3.46094,-4.50782 -0.343,-1.57947 0.002,-3.07842 1.03516,-4.5 1.03094,-1.41964 2.34203,-2.21321 3.92578,-2.37109 0.0993,-0.01 0.2001,-0.0161 0.30078,-0.0195 z" />
      <path
         id="path1273"
         style="fill:#1b1918;fill-rule:evenodd;stroke-width:1.94444"
         d="m 119.25781,176.41992 c -0.14251,0.003 -0.2846,0.0102 -0.42773,0.0234 -1.1412,0.10811 -2.11178,0.53356 -2.91406,1.27148 -0.80227,0.73772 -1.71571,2.1115 -2.74024,4.11914 l -4.07422,7.9961 18.80664,9.58203 1.9375,-3.79883 -7.85156,-4.00195 0.39063,-0.76758 c 0.44703,-0.875 0.84059,-1.47199 1.18359,-1.80469 0.35117,-0.32822 0.80407,-0.57787 1.36523,-0.74218 0.56545,-0.16625 1.82516,-0.3649 3.78516,-0.59571 l 5.49023,-0.6582 2.31641,-4.54102 -4.8418,0.42969 c -1.92461,0.16216 -3.30631,0.36027 -4.15234,0.60352 -0.84583,0.24111 -1.71731,0.65258 -2.61719,1.23046 0.60472,-1.77081 0.65464,-3.31084 0.16211,-4.60351 -0.49894,-1.29694 -1.45415,-2.31042 -2.86328,-3.02734 -0.97473,-0.49664 -1.9575,-0.73394 -2.95508,-0.71485 z m -0.1582,4.41602 c 0.43364,-0.0185 0.88786,0.0923 1.36328,0.33398 0.56544,0.28895 0.9675,0.6567 1.21484,1.10547 0.24555,0.44898 0.33091,0.93888 0.25391,1.4668 -0.0768,0.53414 -0.58264,1.71047 -1.50976,3.53125 l -1.42969,2.80859 -4.77149,-2.42969 1.50977,-2.96093 c 0.78575,-1.54214 1.27724,-2.45344 1.47265,-2.74024 0.41981,-0.56331 0.90955,-0.91761 1.47071,-1.05469 0.14029,-0.0348 0.28123,-0.0544 0.42578,-0.0605 z" />
      <path
         id="path1267"
         style="fill:#1b1918;fill-rule:evenodd;stroke-width:1.94444"
         d="m 105.84961,229.33984 c -2.57684,-0.0302 -4.73714,0.61235 -6.476563,1.92774 -2.14492,1.6172 -3.40305,3.97003 -3.78125,7.05664 -0.21,1.70625 -0.121659,3.24111 0.275391,4.61719 0.28681,1.03075 0.806828,2.0104 1.548828,2.93945 0.74822,0.92692 1.628705,1.69373 2.634764,2.30078 1.36966,0.81881 3.1193,1.35528 5.25586,1.61719 3.3318,0.40931 6.06322,-0.18646 8.19141,-1.79102 2.12431,-1.60455 3.37944,-3.96645 3.76172,-7.08398 0.37625,-3.07203 -0.27763,-5.64636 -1.95704,-7.72071 -1.68759,-2.07218 -4.21979,-3.32059 -7.60351,-3.73632 -0.63912,-0.0787 -1.25496,-0.11998 -1.84961,-0.12696 z m -0.48438,4.38086 c 0.53178,-0.001 1.09765,0.0356 1.69727,0.10938 2.42978,0.29925 4.18491,1.0627 5.26562,2.29101 1.085,1.23258 1.52213,2.6915 1.31641,4.375 -0.20786,1.68759 -0.99042,3.00346 -2.34765,3.95118 -1.35936,0.93957 -3.22622,1.27135 -5.59766,0.98046 -2.415,-0.29731 -4.1487,-1.05599 -5.21289,-2.26562 -1.064002,-1.21587 -1.489472,-2.69353 -1.275392,-4.43945 0.21408,-1.73969 0.977722,-3.06832 2.287112,-3.97657 0.98364,-0.67868 2.27186,-1.02119 3.86718,-1.02539 z" />
      <path
         id="path1259"
         style="fill:#1b1918;fill-rule:evenodd;stroke-width:1.94444"
         d="m 116.49805,276.44141 -18.886722,12.65429 0.935547,4.40821 22.355465,3.65429 -0.93945,-4.42187 -5.05469,-0.70508 -1.75586,-8.25391 4.3086,-2.79882 z m -6.53516,9.41211 1.19727,5.63476 -8.25586,-1.16211 z" />
      <path
         id="path1255"
         style="fill:#1b1918;fill-rule:evenodd;stroke-width:1.94444"
         d="m 120.92773,297.47461 -2.91992,3.88477 c -1.16803,1.53805 -1.94547,2.7004 -2.33008,3.49023 -0.38656,0.78983 -0.66328,1.71175 -0.83789,2.76758 -0.9102,-1.63372 -2.02177,-2.70261 -3.3125,-3.19922 -1.29694,-0.4968 -2.68823,-0.46387 -4.16406,0.10351 -1.16589,0.44684 -2.08939,1.12814 -2.77734,2.04883 -0.68386,0.92089 -1.01586,1.92849 -1.00586,3.01758 0.0125,1.08908 0.42195,2.68752 1.22851,4.79297 l 3.2168,8.37695 19.70313,-7.56445 -1.52735,-3.98242 -8.22656,3.1582 -0.30664,-0.80273 c -0.35331,-0.91875 -0.53518,-1.61189 -0.55078,-2.08789 -0.0105,-0.48222 0.10777,-0.98382 0.36133,-1.51368 0.25569,-0.53006 0.95097,-1.59821 2.08789,-3.20898 l 3.1875,-4.52148 z m -10.68164,10.82227 c 0.19966,-0.004 0.39305,0.015 0.58008,0.0586 0.4968,0.11861 0.91872,0.38561 1.26172,0.79492 0.34494,0.41572 0.87769,1.57844 1.61133,3.48438 l 1.1289,2.94335 -4.99609,1.91602 -1.19141,-3.09766 c -0.6193,-1.61719 -0.96772,-2.59486 -1.04882,-2.93164 -0.13923,-0.68794 -0.0751,-1.28548 0.19922,-1.79687 0.27241,-0.50925 0.73519,-0.89294 1.40039,-1.14844 0.37017,-0.14157 0.72193,-0.21529 1.05468,-0.22265 z" />
      <path
         id="path1249"
         style="fill:#1b1918;fill-rule:evenodd;stroke-width:1.94444"
         d="m 137.80859,339.31836 c -1.04802,-0.007 -2.14619,0.18839 -3.29492,0.58594 -1.25747,0.43439 -2.57193,1.18581 -3.93945,2.25195 -1.56081,1.22014 -2.72616,2.42427 -3.50977,3.61719 -0.77525,1.19505 -1.26216,2.4254 -1.44922,3.69531 -0.19327,1.26797 -0.05,2.50399 0.42579,3.70313 0.35545,0.89366 1.07357,2.02999 2.15429,3.4121 l 4.79492,6.13868 16.63086,-12.99414 -4.93359,-6.31641 c -0.97047,-1.24289 -1.8632,-2.14428 -2.67578,-2.69922 -1.09123,-0.742 -2.1493,-1.18303 -3.17188,-1.32031 -0.33775,-0.0478 -0.68191,-0.0718 -1.03125,-0.0742 z m 0.44727,3.97656 c 0.17134,-0.003 0.33319,0.009 0.48437,0.0352 0.60686,0.10597 1.19097,0.37987 1.75,0.8164 0.43439,0.33464 1.0144,0.97293 1.7461,1.90821 l 1.95703,2.50586 -11.00977,8.60547 -1.17968,-1.50782 c -1.07042,-1.37181 -1.73437,-2.32805 -1.99414,-2.88086 -0.35335,-0.73364 -0.502,-1.45495 -0.4336,-2.16992 0.0646,-0.70467 0.35367,-1.4419 0.86719,-2.20898 0.51334,-0.76262 1.40691,-1.64844 2.69141,-2.65235 1.2845,-1.00372 2.39394,-1.68361 3.3125,-2.03906 0.69051,-0.26497 1.29457,-0.40345 1.80859,-0.41211 z" />
      <path
         style="fill:#1b1918;fill-rule:evenodd;stroke-width:1.94444"
         d="m 348.56679,366.39559 13.17497,16.2678 -3.30886,2.6812 -10.93653,-13.50339 -8.23258,6.6675 -2.24058,-2.76636 z"
         id="path1347" />
      <path
         style="fill:#1b1918;fill-rule:evenodd;stroke-width:1.94444"
         d="m 361.6774,354.187 14.80247,14.80247 -3.01175,3.01175 -12.28752,-12.28558 -7.49059,7.49272 -2.51689,-2.51689 z"
         id="path1345" />
      <path
         style="fill:#1b1918;fill-rule:evenodd;stroke-width:1.94444"
         d="m 390.72526,306.83861 16.3695,6.28309 2.24272,-5.84442 3.33589,1.28022 -6.00872,15.65667 -3.33589,-1.28022 2.23845,-5.83003 -16.3695,-6.28503 z"
         id="path1333" />
      <path
         style="fill:#1b1918;fill-rule:evenodd;stroke-width:1.94444"
         d="m 398.50265,239.1737 21.02528,-1.83925 1.26155,14.41591 -3.55813,0.3117 -0.88959,-10.1677 -4.97369,0.43439 0.76903,8.77936 -3.56028,0.3117 -0.76709,-8.77917 -8.93511,0.78147 z"
         id="path1323" />
      <path
         style="fill:#1b1918;fill-rule:evenodd;stroke-width:1.94444"
         d="m 392.2779,212.24372 20.28736,-5.81738 4.31259,15.0393 -3.4335,0.98525 -3.13834,-10.94489 -4.49769,1.29053 2.92016,10.18422 -3.41269,0.97903 -2.92231,-10.18422 -5.52241,1.58375 3.25072,11.33144 -3.42106,0.98117 z"
         id="path1321" />
      <path
         style="fill:#1b1918;fill-rule:evenodd;stroke-width:1.94444"
         d="m 368.85823,169.16436 17.07631,-12.40594 9.19703,12.65755 -2.8912,2.09923 -6.69239,-9.20948 -3.78486,2.74964 6.22689,8.5715 -2.87233,2.08873 -6.22903,-8.57345 -4.64722,3.3775 6.92942,9.5377 -2.87875,2.09086 z"
         id="path1315" />
      <path
         style="fill:#1b1918;fill-rule:evenodd;stroke-width:1.94444"
         d="m 354.30932,153.66772 15.1828,-14.66325 2.8807,2.98473 -4.13817,16.00375 10.13853,-9.78931 2.75197,2.84939 -15.183,14.66131 -2.97403,-3.08039 3.99253,-15.67748 -9.89955,9.56084 z"
         id="path1313" />
      <path
         style="fill:#1b1918;fill-rule:evenodd;stroke-width:1.94444"
         d="m 347.88701,148.11011 13.84853,-15.92908 3.21533,2.79553 -13.84852,15.92889 z"
         id="path1311" />
      <path
         style="fill:#1b1918;fill-rule:evenodd;stroke-width:1.94444"
         d="m 327.43962,125.15186 3.13834,2.98473 c -1.58161,1.79355 -3.27542,2.86805 -5.08998,3.22777 -1.81027,0.35953 -3.73897,0.0436 -5.77597,-0.94986 -2.51689,-1.2285 -4.16714,-3.09905 -4.95075,-5.60758 -0.77933,-2.51281 -0.44683,-5.26458 1.008,-8.24503 1.5402,-3.15933 3.55425,-5.21072 6.03575,-6.16467 2.4817,-0.94986 5.04856,-0.77933 7.70895,0.51762 2.31952,1.1305 3.87197,2.73505 4.64936,4.81347 0.47172,1.23258 0.54872,2.7123 0.23897,4.44364 l -4.23578,-0.94773 c 0.25978,-1.09122 0.17247,-2.09708 -0.266,-3.01583 -0.43244,-0.91642 -1.15986,-1.62108 -2.17622,-2.11575 -1.40486,-0.6858 -2.79339,-0.73986 -4.16306,-0.15594 -1.36538,0.58197 -2.60011,2.00161 -3.70358,4.2628 -1.16822,2.39867 -1.57344,4.31686 -1.20342,5.75517 0.36362,1.44044 1.23862,2.49628 2.6145,3.1675 1.02064,0.4968 2.05139,0.60064 3.10314,0.30975 1.04748,-0.28895 2.07006,-1.05175 3.06775,-2.28006 z"
         id="path1305" />
      <path
         style="fill:#1b1918;fill-rule:evenodd;stroke-width:1.94444"
         d="m 223.12815,119.59211 -3.66625,-20.78416 6.28308,-1.10775 6.27045,13.51583 1.22422,-14.83767 6.29553,-1.10989 3.66625,20.78612 -3.89492,0.686 -2.88478,-16.36348 -1.24502,17.09089 -4.04036,0.71284 -6.99806,-15.638 2.88478,16.36347 z"
         id="path1291" />
      <path
         style="fill:#1b1918;fill-rule:evenodd;stroke-width:1.94444"
         d="m 196.98801,128.91806 -7.5633,-19.70559 14.60705,-5.60544 1.28022,3.33375 -10.62891,4.08003 1.67728,4.36878 9.89119,-3.79731 1.274,3.31508 -9.89333,3.79731 2.05975,5.36433 11.00516,-4.22547 1.2742,3.32131 z"
         id="path1289" />
      <path
         style="fill:#1b1918;fill-rule:evenodd;stroke-width:1.94444"
         d="m 181.28973,137.69509 -10.46694,-18.13 3.68919,-2.1282 8.68778,15.04767 9.17622,-5.29784 1.77917,3.08214 z"
         id="path1287" />
      <path
         style="fill:#1b1918;fill-rule:evenodd;stroke-width:1.94444"
         d="m 156.15137,158.65386 -6.39119,-6.17283 -14.16022,-2.92853 3.46889,-3.59353 9.45894,2.22387 -2.62714,-9.29892 3.41056,-3.53111 3.42105,14.09158 6.37039,6.15222 z"
         id="path1281" />
      <path
         style="fill:#1b1918;fill-rule:evenodd;stroke-width:1.94444"
         d="m 118.94365,227.52628 -20.3873,-5.46194 1.0745,-4.00731 15.848,-4.69719 -13.6115,-3.64759 1.02452,-3.82647 20.38731,5.46214 -1.10775,4.13603 -15.49683,4.65364 13.29572,3.56241 z"
         id="path1271" />
      <path
         style="fill:#1b1918;fill-rule:evenodd;stroke-width:1.94444"
         d="m 115.63051,258.58625 -21.09372,-0.73791 0.14953,-4.25873 21.09178,0.73792 z"
         id="path1265" />
      <path
         style="fill:#1b1918;fill-rule:evenodd;stroke-width:1.94444"
         d="m 116.5306,271.70522 -17.49203,1.22403 0.43653,6.24361 -3.56456,0.24948 -1.16803,-16.72923 3.56242,-0.24947 0.43653,6.23117 17.48969,-1.22422 z"
         id="path1263" />
      <path
         style="fill:#1b1918;fill-rule:evenodd;stroke-width:1.94444"
         d="m 136.9531,332.44889 -18.27973,10.55425 -7.82308,-13.55122 3.09478,-1.78539 5.69275,9.85989 4.05066,-2.3382 -5.29783,-9.17622 3.07611,-1.77703 5.29784,9.17623 4.97583,-2.87234 -5.89439,-10.20911 3.08214,-1.77916 z"
         id="path1253" />
      <path
         style="fill:#1b1918;fill-rule:evenodd;stroke-width:1.94444"
         d="m 163.33648,363.77486 -14.6613,15.18281 -11.25658,-10.86808 2.48363,-2.57095 8.18903,7.91039 3.25053,-3.367 -7.62144,-7.35972 2.46711,-2.55442 7.62144,7.35972 3.99058,-4.13194 -8.47991,-8.18883 2.47119,-2.56064 z"
         id="path1247" />
    </g>
    <g
       id="g2008">
      <path
         id="path1720"
         style="fill:#000000;fill-rule:evenodd;stroke-width:1.94444"
         d="m 460.62891,206.15234 c -0.34975,0.005 -0.68599,0.0425 -1.00977,0.11133 -0.58197,0.12464 -0.87056,1.14655 -0.84766,3.08789 0.0208,1.92675 0.31574,4.28669 0.91016,7.07813 0.25997,1.22831 0.89578,2.32517 1.87695,3.2832 0.99342,0.95414 2.24325,1.64925 3.75,2.0918 -3.38353,1.34284 -6.08983,2.76141 -8.09961,4.22461 -2.69558,1.96 -3.87021,3.8164 -3.49804,5.5664 l 0.95703,4.49805 -0.75195,0.0391 0.17578,3.34375 c 0.17248,3.30264 0.83428,6.24124 1.99609,8.78321 0.92283,2.08464 2.17302,3.91251 3.74219,5.49218 -1.58783,0.97261 -2.79111,2.48346 -3.59961,4.50782 -0.67356,1.69808 -0.97969,3.35229 -0.89649,4.96093 l 0.23438,4.40625 -0.98438,-0.10351 -0.60351,5.76562 c -0.30139,2.86184 -0.18965,5.06614 0.33398,6.625 0.52598,1.561 1.58118,3.15114 3.1836,4.75977 -1.70431,1.66892 -3.09836,3.65495 -4.21875,5.94531 -0.94773,1.99111 -1.52285,3.81831 -1.69532,5.4707 l -0.40429,3.83399 6.43359,0.67578 c 1.75214,0.18492 4.10397,-0.24616 7.04688,-1.3125 2.17409,-0.79178 4.64964,-1.89641 7.41406,-3.32422 -0.21622,-1.69594 -0.94802,-3.60867 -2.16602,-5.72461 -1.37181,-2.36522 -3.05645,-4.40167 -5.06836,-6.13086 -1.48595,-1.27828 -2.60389,-2.64356 -3.34375,-4.08594 -0.952,-1.8727 -1.30892,-3.9272 -1.07421,-6.17187 l 0.57617,-5.46484 1.08203,-0.0566 -0.28516,-5.44531 c -0.0395,-0.77331 0.11262,-1.73363 0.44531,-2.88086 0.33658,-1.13477 0.78772,-1.92108 1.36133,-2.35742 1.57539,1.70625 2.80414,2.875 3.6875,3.48828 1.17425,0.86664 2.30105,1.26309 3.36524,1.20899 2.01406,-0.10617 3.43578,-1.33649 4.27539,-3.69141 0.65689,-1.78539 0.90539,-4.08534 0.75781,-6.88281 -0.16839,-3.24236 -0.74467,-5.48595 -1.73828,-6.75586 -1.08694,-1.37589 -2.98638,-2.00092 -5.70899,-1.85742 l -2.1914,0.11328 0.041,0.78711 c 0.56544,0.3887 0.94027,0.74861 1.12305,1.0957 0.17247,0.3325 0.27985,0.72131 0.30273,1.16406 0.0519,0.9872 -0.36909,1.91252 -1.27734,2.74805 l -1.91797,1.66016 c -1.24289,-1.89136 -2.16939,-3.83238 -2.79492,-5.83399 -0.53842,-1.76244 -0.86631,-3.67372 -0.97656,-5.75 l -0.17383,-3.34375 -1.13477,0.0606 1.9043,-0.40625 -1.10547,-5.19727 c -0.16839,-0.79411 0.93008,-1.84478 3.28906,-3.125 1.54625,-0.83339 3.97453,-1.91945 7.28126,-3.25781 l 6.01953,-2.42187 c 1.42586,-0.66519 2.81857,-1.25916 4.17773,-1.82032 1.34692,-0.54445 2.74455,-1.10253 4.19336,-1.66992 -1.02881,-0.57147 -2.01112,-0.98467 -2.92773,-1.26953 -1.13478,-0.34089 -2.11192,-0.43242 -2.94336,-0.25586 -0.18706,0.0397 -0.68033,0.22181 -1.47852,0.55859 -0.78342,0.33464 -1.27192,0.54322 -1.45898,0.63672 -2.75197,-3.66839 -5.67794,-6.58355 -8.78516,-8.76172 -2.62336,-1.83963 -4.88873,-2.74122 -6.77734,-2.71289 z m 4.28711,6.11914 c 1.50266,0.54872 2.79695,1.33552 3.86328,2.37891 1.0745,1.0288 2.20942,2.52706 3.40039,4.47656 l -3.80664,1.53516 c -1.80619,-0.98933 -2.86817,-2.20355 -3.17578,-3.6543 -0.25355,-1.19097 -0.39151,-2.135 -0.41211,-2.84375 -0.0208,-0.70875 0.0144,-1.33763 0.13086,-1.89258 z m -1.58594,75.89649 c 1.15986,0.86256 1.96259,1.59681 2.42187,2.19336 0.71905,0.90417 1.17091,1.96064 1.34961,3.16406 -1.33428,0.81667 -2.61067,1.43598 -3.81836,1.88281 -1.45698,0.52169 -2.91021,0.865 -4.36718,1.0293 l -0.45704,-0.37695 c 0.32628,-1.407 0.95341,-2.88613 1.89063,-4.41797 0.92712,-1.53591 1.92891,-2.69314 2.98047,-3.47461 z" />
      <path
         id="path1778"
         style="fill:#000000;fill-rule:evenodd;stroke-width:1.94444"
         d="m 352.0293,47.402344 c -1.05778,0.51548 -1.96004,1.083685 -2.72071,1.671875 -0.92906,0.73364 -1.56398,1.480248 -1.89648,2.261719 -0.0749,0.176749 -0.20783,0.687363 -0.38867,1.533203 -0.17461,0.83358 -0.28531,1.352873 -0.31641,1.558593 -4.58286,0.14972 -8.6503,0.875122 -12.2168,2.169922 -3.56864,1.29695 -5.76835,2.939172 -6.59765,4.888672 -0.23275,0.55067 0.4386,1.371684 2.04101,2.464844 1.58997,1.08909 3.69513,2.200286 6.32227,3.316406 1.15558,0.49038 2.41676,0.599263 3.76562,0.345703 1.351,-0.266 2.63675,-0.894027 3.86719,-1.873047 -0.84175,3.54161 -1.23334,6.572814 -1.18555,9.058594 0.0581,3.33161 0.90657,5.358191 2.55274,6.056641 l 3.82226,1.623047 -0.008,0.01172 16.81055,9.705078 -0.35352,0.503907 26.33008,18.437499 -0.69531,0.69726 11.62891,11.62891 -0.39454,0.33008 3.72657,4.43945 c 1.84975,2.20519 3.51386,3.65472 5,4.36133 1.48595,0.70467 3.36307,1.05292 5.63476,1.01563 0.0167,2.38796 0.47497,4.76754 1.34375,7.16601 0.7733,2.06383 1.68759,3.74767 2.75586,5.01953 l 2.00586,2.38867 -0.57812,0.34571 9.45117,15.73047 6.25,-3.75391 22.70898,-18.76367 0.40821,1.83984 c 0.73169,-0.11414 1.75023,-0.46283 3.07226,-1.01758 1.30511,-0.56545 2.48836,-1.15481 3.55469,-1.79492 -0.22458,-1.3302 -0.44589,-2.66254 -0.66211,-3.98242 -0.20786,-1.75214 0.30294,-2.99041 1.53125,-3.73047 l 0.0606,-0.68945 c -1.51317,0.21622 -2.99333,0.58646 -4.43164,1.09765 -1.43402,0.51956 -2.88038,1.21253 -4.34766,2.09375 l 0.20508,2.14063 -24.73633,20.01367 -7.51953,-12.51172 -0.92578,0.55469 1.38867,-1.16406 c 1.34906,-1.13264 2.67503,-3.12449 3.95117,-5.98438 0.9415,-2.11166 1.86629,-4.66 2.75781,-7.64258 -1.36966,-1.02045 -3.25373,-1.82159 -5.62304,-2.41601 -2.65203,-0.65688 -5.28817,-0.85867 -7.92969,-0.61328 -1.9497,0.18083 -3.71103,0.034 -5.26367,-0.4336 -2.00784,-0.61716 -3.73285,-1.78428 -5.1836,-3.51367 l -2.75586,-3.28906 1.04688,-1.04688 17.49414,-23.701166 0.8418,1.6875 c 0.68172,-0.28681 1.58909,-0.870059 2.73632,-1.730469 1.13069,-0.86256 2.1346,-1.722469 3.01368,-2.599609 -0.53822,-1.2388 -1.07756,-2.474825 -1.60547,-3.703125 -0.62767,-1.65025 -0.43219,-2.977768 0.58203,-3.992188 l -0.10742,-0.68164 c -1.41536,0.57381 -2.76311,1.290875 -4.03516,2.134765 -1.26564,0.85206 -2.5013,1.872405 -3.71094,3.083985 l 0.7168,2.029297 -19.16016,25.40039 -10.32226,-10.32031 -2.10938,2.10937 2.29688,-3.28125 c 0.56116,-3.9865 0.56116,-8.228907 0,-12.693357 -0.49875,-4.17142 -1.46722,-8.490578 -2.91797,-12.986328 -0.4095,-1.18456 -0.80002,-2.372451 -1.19922,-3.550781 -0.61308,-1.88514 -0.75811,-3.053654 -0.42969,-3.521484 0.32628,-0.46766 1.79675,-0.443392 4.39258,0.07422 2.03894,0.40522 4.62447,1.085657 7.74219,2.029297 l 7.84766,2.322266 3.6875,-5.263672 -10.92188,-2.666016 c -4.90097,-1.24911 -8.78074,-1.518252 -11.64062,-0.794922 -3.09069,0.78984 -5.86619,2.936282 -8.31055,6.425782 -0.40522,0.58003 -0.35727,1.837966 0.1582,3.779297 l 1.67383,5.259765 1.66992,-0.240234 c 1.81864,4.01333 3.07214,7.461651 3.78711,10.332031 0.69825,2.8702 1.02125,5.881006 0.92773,9.021476 L 370.26953,88.125 l 1.67383,-2.898438 c 2.20714,-3.82434 3.49095,-6.726408 3.86914,-8.705078 0.24947,-1.31775 0.16431,-3.403107 -0.26172,-6.242187 l -5.52734,3.792969 c 0.5985,2.66039 0.83929,4.583238 0.71679,5.730468 -0.16839,1.68758 -0.98212,3.78281 -2.44531,6.31836 l -15.66211,-9.042969 0.041,-0.09961 -4.89063,-2.076172 c -0.74822,-0.31791 -0.97734,-1.82167 -0.67187,-4.488282 0.20378,-1.745919 0.70572,-4.354781 1.50586,-7.832031 l 1.46875,-6.318359 c 0.27223,-1.5505 0.58619,-3.030637 0.90625,-4.466797 0.32628,-1.4175 0.67136,-2.883501 1.03711,-4.394531 z m -8.78907,11.101562 c 0.74129,-0.0068 1.53959,0.0173 2.39454,0.07031 l -0.92774,4 c -1.84567,0.91234 -3.451,1.085879 -4.81445,0.505859 -1.12233,-0.47581 -1.97199,-0.904279 -2.56446,-1.292969 -0.59226,-0.39083 -1.08786,-0.781722 -1.47656,-1.195312 1.31153,-0.91466 2.69872,-1.524655 4.16406,-1.796875 0.73053,-0.14555 1.5651,-0.237079 2.50196,-0.273438 0.23421,-0.0091 0.47556,-0.0153 0.72265,-0.01758 z m 81.96485,73.109374 c 0.54301,-0.0355 1.00089,-0.0299 1.375,0.0117 1.15131,0.11006 2.22356,0.51586 3.21484,1.22461 -0.34086,1.52775 -0.78141,2.87422 -1.29883,4.05469 -0.63817,1.41128 -1.39716,2.69542 -2.29297,3.85937 l -0.58789,0.0664 c -0.7877,-1.21373 -1.41236,-2.68981 -1.86328,-4.43164 -0.4614,-1.73133 -0.60003,-3.25756 -0.43164,-4.55664 0.71293,-0.11784 1.34176,-0.19304 1.88477,-0.22852 z" />
      <path
         style="fill:#000000;fill-rule:evenodd;stroke-width:1.94444"
         d="m 446.13998,173.25061 c -1.80833,0.80423 -3.70163,1.25748 -5.69702,1.35723 -1.0537,0.0665 -2.81614,-0.0249 -5.29161,-0.28273 l 0.0749,-0.76902 c 0.68172,-0.21817 1.46941,-0.50089 2.35472,-0.82503 0.88142,-0.32434 1.47583,-0.54678 1.76672,-0.6755 2.35278,-1.04767 5.55353,-2.70822 9.60439,-4.95717 4.06331,-2.25497 8.26583,-4.66589 12.62217,-7.22867 2.65008,-1.55672 5.33536,-3.1675 8.06011,-4.83855 1.19719,0.008 2.5023,0.0375 3.90736,0.10597 1.4175,0.0624 2.74769,0.1227 3.98844,0.19756 -2.41091,1.50266 -5.73844,3.53947 -9.97636,6.09175 -4.22528,2.54605 -8.07664,4.77419 -11.53522,6.70289 -4.28983,2.39847 -7.58411,4.09869 -9.87856,5.12127 z"
         id="path1788" />
      <path
         style="fill:#000000;fill-rule:evenodd;stroke-width:1.94444"
         d="m 354.46118,98.03484 -5.13372,3.25888 -3.65595,-5.71355 5.07753,-3.29214 z"
         id="path1784" />
      <path
         style="fill:#000000;fill-rule:evenodd;stroke-width:1.94444"
         d="m 363.53123,99.41909 -5.17319,3.1778 -3.62056,-5.77792 5.06723,-3.19666 z"
         id="path1782" />
      <path
         style="fill:#000000;fill-rule:evenodd;stroke-width:1.94444"
         d="m 349.67454,38.12242 -4.70964,3.85758 -4.31492,-5.22103 4.63906,-3.88675 z"
         id="path1776" />
      <path
         style="fill:#000000;fill-rule:evenodd;stroke-width:1.94444"
         d="m 358.84454,38.3925 -4.75961,3.78078 -4.28983,-5.27917 4.63283,-3.80566 z"
         id="path1774" />
      <path
         style="fill:#000000;fill-rule:evenodd;stroke-width:1.94444"
         d="m 291.05285,53.73961 c -0.20787,1.96817 -0.76067,3.83464 -1.6732,5.61381 -0.46958,0.94558 -1.42994,2.4255 -2.891,4.43955 L 285.86098,63.344 c 0.14973,-0.69844 0.29925,-1.52347 0.46142,-2.45058 0.16003,-0.92478 0.266,-1.55245 0.29925,-1.86842 0.27028,-2.56064 0.43031,-6.16253 0.50925,-10.7973 0.079,-4.64528 0.0914,-9.49006 0.0498,-14.54484 -0.0206,-3.07397 -0.0747,-6.20394 -0.16003,-9.39847 0.60706,-1.03522 1.2845,-2.14919 2.04517,-3.3318 0.7628,-1.19506 1.48205,-2.31739 2.16572,-3.35456 0.0957,2.83908 0.19542,6.73828 0.28894,11.68494 0.0914,4.93209 0.0957,9.38195 0.0373,13.34123 -0.0684,4.91555 -0.24306,8.61914 -0.50497,11.11541 z"
         id="path1772" />
      <path
         id="path1766"
         style="fill:#000000;fill-rule:evenodd;stroke-width:1.94444"
         d="m 272.21484,12.853516 c -0.69203,1.36344 -1.23717,2.788215 -1.64453,4.259765 -0.39706,1.4735 -0.65873,3.055282 -0.77929,4.763672 l 1.87304,1.058594 2.20313,31.742187 -13.66797,-0.955078 -0.0312,-0.449218 c -0.12483,-1.758361 -0.95658,-4.000394 -2.51953,-6.714844 -1.15558,-2.00355 -2.67308,-4.247377 -4.5625,-6.722656 -1.63158,0.507109 -3.38494,1.559919 -5.25977,3.125 -2.08872,1.76031 -3.80292,3.77444 -5.1582,6.05664 -0.9975,1.68544 -2.15264,3.02489 -3.44336,4.00586 -1.67922,1.26156 -3.63778,1.969063 -5.88867,2.126953 l -5.66797,0.396484 0.30469,4.361328 -0.76368,-3.595703 -5.33398,1.134766 c -0.75659,0.15928 -1.72913,0.161438 -2.91602,0.01172 -1.17425,-0.15381 -2.0195,-0.477622 -2.53906,-0.976562 1.44044,-1.82486 2.39955,-3.21898 2.86719,-4.1875 0.67114,-1.29695 0.88827,-2.470282 0.66797,-3.513672 -0.41981,-1.97244 -1.85589,-3.185264 -4.3125,-3.646484 -1.86862,-0.36789 -4.18058,-0.254032 -6.91992,0.330078 -3.17586,0.67336 -5.30119,1.595107 -6.39844,2.773437 -1.19097,1.29072 -1.51269,3.262891 -0.94531,5.931641 l 0.45703,2.144531 0.76953,-0.164062 c 0.29517,-0.61931 0.59437,-1.046547 0.9082,-1.279297 0.30139,-0.22245 0.66931,-0.388922 1.10156,-0.482422 0.96872,-0.20573 1.94555,0.06515 2.91407,0.832031 l 1.9414,1.636719 c -1.6732,1.52153 -3.44745,2.740675 -5.32422,3.671875 -1.65648,0.80636 -3.49443,1.428891 -5.52929,1.863281 l -3.27539,0.69336 0.94726,4.464843 -3.0664,-6.892578 c -1.06828,-2.39847 -2.53625,-4.354752 -4.39844,-5.857422 -1.64617,-1.32397 -3.79137,-2.434638 -6.4082,-3.324219 l 0.4375,6.189454 c 2.26139,0.99361 4.16879,2.100546 5.70898,3.316406 1.92033,1.50481 3.2764,3.148391 4.07031,4.93164 0.92905,2.086771 0.96003,4.863452 0.0996,8.357422 -0.86042,3.4895 -2.34059,6.718095 -4.43554,9.677735 -2.31545,3.25286 -4.9268,5.523733 -7.82422,6.814453 -1.30725,0.58197 -2.84535,1.088002 -4.60157,1.507812 -1.74378,0.41786 -3.4311,0.806312 -5.06054,1.169922 l 0.0254,1.613282 c 1.8727,-0.09567 3.76593,-0.20403 5.67187,-0.31836 2.24467,-0.13708 4.12674,-0.338734 5.6543,-0.615234 2.02027,-0.35953 3.8023,-0.874203 5.36719,-1.570313 1.69186,-0.7525 3.49872,-2.528141 5.40039,-5.332031 2.00375,-2.92017 3.40653,-5.972567 4.21289,-9.148438 0.8874,-3.423 0.85697,-6.337671 -0.0762,-8.738281 l 2.89648,-0.613281 c 3.23614,-0.68814 6.03344,-1.801423 8.36328,-3.345703 1.9143,-1.23861 3.52228,-2.760941 4.83789,-4.556641 1.2077,1.41536 2.88938,2.36934 5.01563,2.84961 1.78325,0.399 3.46543,0.444015 5.04101,0.109375 l 5.33203,-1.134766 -0.14062,-0.664063 5.48828,-0.384765 c 2.87233,-0.1995 5.02441,-0.692766 6.46875,-1.478516 1.44452,-0.78963 2.82946,-2.106734 4.13477,-3.964843 1.94114,1.39047 4.13554,2.41839 6.58593,3.125 2.12625,0.5882 4.02303,0.837173 5.68164,0.720703 l 2.10157,-0.144532 -0.0195,0.261719 18.30664,1.279297 0.50781,-7.271484 -2.34375,-29.365235 1.74023,0.720703 c 0.32627,-0.66519 0.6283,-1.698639 0.92969,-3.099609 0.28681,-1.39242 0.48106,-2.700656 0.56836,-3.941406 -1.218,-0.57984 -2.43703,-1.160405 -3.64258,-1.740235 -1.55672,-0.83359 -2.27548,-1.964391 -2.17578,-3.394531 z M 251.55078,45.15625 c 1.03717,1.1723 1.86697,2.321574 2.51758,3.433594 0.76689,1.34459 1.35771,2.713893 1.77344,4.121094 l -0.29297,0.515624 c -1.44453,-0.077 -3.00649,-0.439063 -4.67969,-1.095703 -1.67105,-0.64652 -2.9855,-1.432141 -3.9375,-2.332031 0.64634,-1.29072 1.23117,-2.208732 1.73828,-2.763672 0.76689,-0.86664 1.72742,-1.494296 2.88086,-1.878906 z" />
      <path
         style="fill:#000000;fill-rule:evenodd;stroke-width:1.94444"
         d="m 208.96793,31.4382 -1.63158,5.85491 -6.54073,-1.79783 1.60048,-5.89031 z"
         id="path1768" />
      <path
         style="fill:#000000;fill-rule:evenodd;stroke-width:1.94444"
         d="m 163.19921,95.019 0.50302,6.08359 -6.75072,0.665 -0.64633,-6.05014 z"
         id="path1764" />
      <path
         style="fill:#000000;fill-rule:evenodd;stroke-width:1.94444"
         d="m 144.61187,109.75497 1.20342,5.96089 -6.64456,1.36753 -1.25338,-5.92122 z"
         id="path1762" />
      <path
         style="fill:#000000;fill-rule:evenodd;stroke-width:1.94444"
         d="m 149.15546,101.78431 1.11183,5.96925 -6.69044,1.30939 -1.16803,-5.87786 z"
         id="path1760" />
      <path
         id="path1756"
         style="fill:#000000;fill-rule:evenodd;stroke-width:1.94444"
         d="m 144.8457,67.777344 0.86719,6.65039 c 2.64366,0.67122 4.46525,1.331128 5.43164,1.960938 1.4278,0.91661 2.92333,2.592215 4.51758,5.046875 l -14.9043,9.681641 -1.83593,-2.269532 c -2.7788,-3.43155 -5.03185,-5.670372 -6.74024,-6.732422 -1.14314,-0.70662 -3.12012,-1.37464 -5.92187,-1.99414 l 1.55859,6.521484 c 2.69986,0.39277 4.58076,0.856833 5.60742,1.382813 1.51531,0.76066 3.17796,2.273048 5.02149,4.548828 l -12.8711,10.421871 -0.22851,-0.23632 -3.82227,3.6914 c -0.58392,0.56525 -2.05633,0.18921 -4.39258,-1.13476 -1.52756,-0.86878 -3.73418,-2.35038 -6.62304,-4.44532 l -5.24219,-3.822262 c -1.32184,-0.85633 -2.56061,-1.723925 -3.75781,-2.578125 -1.17639,-0.85419 -2.389753,-1.744955 -3.636723,-2.671875 0.06028,1.17425 0.227266,2.2272 0.472656,3.15625 0.31169,1.14314 0.75342,2.019719 1.34375,2.63086 0.133,0.137079 0.549067,0.460221 1.257817,0.957031 0.69825,0.4863 1.13399,0.79228 1.31054,0.90039 -1.65219,4.277391 -2.575701,8.304611 -2.777341,12.093751 -0.1995,3.79089 0.454221,6.457 1.925781,7.98047 0.41358,0.43031 1.43287,0.13341 3.06445,-0.91406 1.62322,-1.03911 3.46991,-2.54265 5.52344,-4.5254 0.90202,-0.87091 1.49603,-1.98957 1.78906,-3.33007 0.28272,-1.34886 0.20905,-2.77591 -0.21289,-4.29102 2.93261,2.1593 5.56792,3.7018 7.875,4.63086 3.0905,1.24604 5.28563,1.25851 6.57227,0.0156 l 2.0625,-1.99024 0.0879,0.10547 15.41797,-12.482422 0.11523,0.181641 17.75977,-11.533203 -4.9375,-7.605469 c -2.4047,-3.70164 -4.41002,-6.163908 -6,-7.398438 -1.05991,-0.82094 -2.95708,-1.693125 -5.67774,-2.603515 z m -39.18945,34.271486 3.31836,2.41601 c 0.11841,2.05547 -0.34793,3.6001 -1.41406,4.62891 -0.875,0.84583 -1.60517,1.46269 -2.19336,1.85547 -0.59034,0.39278 -1.1436,0.69717 -1.67774,0.89453 -0.32839,-1.56489 -0.3474,-3.08209 -0.0273,-4.53906 0.30353,-1.45698 0.9737,-3.21069 1.99414,-5.25586 z" />
      <path
         style="fill:#000000;fill-rule:evenodd;stroke-width:1.94444"
         d="m 88.40965,90.34047 1.70839,5.84034 -6.49094,1.93297 -1.76459,-5.78842 z"
         id="path1754" />
      <path
         style="fill:#000000;fill-rule:evenodd;stroke-width:1.94444"
         d="m 92.24001,82.00406 1.61914,5.85686 -6.53236,1.88728 -1.69614,-5.75303 z"
         id="path1752" />
      <path
         style="fill:#000000;fill-rule:evenodd;stroke-width:1.94444"
         d="m 69.67687,196.79064 c 2.61256,0.66733 5.05459,2.47547 7.31598,5.42889 2.00569,2.59175 3.54997,5.57647 4.61611,8.95183 1.0393,3.22564 1.32611,5.74253 0.87714,7.53842 -0.41359,1.66269 -1.10367,3.38353 -2.06598,5.19594 -0.72119,1.37589 -1.72297,2.98259 -2.99697,4.83448 -1.08286,1.57325 -2.16378,3.13211 -3.24022,4.66802 l -1.28664,-0.97475 c 0.71711,-1.50694 1.44861,-3.07611 2.19275,-4.70769 0.75036,-1.64189 1.29908,-3.16536 1.64617,-4.55583 0.76689,-3.07611 0.58391,-6.53236 -0.553,-10.35884 -1.04339,-3.47297 -2.67478,-6.62589 -4.8967,-9.45252 -2.22172,-2.82878 -4.42691,-4.51656 -6.64475,-5.06937 -1.8933,-0.47172 -4.02578,-0.41358 -6.39314,0.17053 -1.90594,0.4655 -3.95305,1.28859 -6.12927,2.45875 l -5.14617,-3.4648 c 2.31136,-1.51511 4.51014,-2.52117 6.56367,-3.0032 2.33197,-0.54464 4.77613,-0.49466 7.32433,0.13922 l 2.47742,0.61717 10.41288,-25.77011 c -3.08019,0.61717 -5.94222,1.60864 -8.5818,2.93261 -2.63745,1.34264 -5.7155,3.33997 -9.2157,6.01495 l 0.609,1.57325 -4.74697,2.81419 c -1.77508,0.93956 -2.9888,1.26992 -3.64758,1.00392 -3.94917,-1.5962 -6.66342,-3.81598 -8.13089,-6.65098 -1.34672,-2.62286 -1.95572,-6.46586 -1.84353,-11.52277 l 0.13922,-11.24006 5.96089,2.40683 -0.49661,8.17037 c -0.21836,3.24838 -0.30139,5.92336 -0.23703,8.00177 0.0811,2.64581 0.3887,4.08198 0.91875,4.29606 0.52792,0.21214 1.63353,-0.189 3.33375,-1.21158 1.05584,-0.65275 2.12625,-1.30123 3.18831,-1.96623 4.05494,-2.42336 8.04339,-4.3398 11.99644,-5.76547 4.22548,-1.5505 8.35956,-2.50464 12.36881,-2.8558 l 5.19594,2.09922 -4.71177,-2.94311 7.73597,-12.37892 -29.0605,-12.957 -1.81436,1.15558 c -1.45289,-0.90825 -2.72689,-1.883 -3.84106,-2.92425 -1.10775,-1.04961 -2.10953,-2.20111 -2.98666,-3.45022 l 0.63816,-0.25978 c 1.218,0.76067 2.55228,0.6547 4.01956,-0.32841 1.07878,-0.79178 2.16378,-1.59406 3.24858,-2.39634 1.05389,0.65878 2.11789,1.44239 3.21125,2.35064 1.09725,0.92497 1.86628,1.67514 2.30067,2.27597 l -1.4527,1.19914 27.02759,11.71392 6.18333,3.86381 -9.72281,15.56313 -0.0292,-0.0194 z"
         id="path1750" />
      <path
         id="path1746"
         style="fill:#000000;fill-rule:evenodd;stroke-width:1.94444"
         d="m 50.636719,235.05859 c -2.057125,-0.005 -4.182966,1.29328 -6.38086,3.90625 -0.68172,0.80422 -2.407875,3.3393 -5.134765,7.59375 l 6.05664,2.81055 0.201172,-0.54492 c 1.8727,0.99147 3.735456,1.95548 5.597656,2.92187 2.188661,1.05797 4.160204,1.66278 5.876954,1.8125 1.5048,0.13086 2.726842,-0.44829 3.664062,-1.72851 0.81278,-1.12661 1.309094,-2.58535 1.464844,-4.37696 0.4095,-4.67657 -0.675701,-7.99112 -3.238281,-9.98437 -1.64403,-1.29267 -4.207563,-2.08905 -7.695313,-2.39258 -0.136524,-0.0119 -0.274968,-0.0172 -0.412109,-0.0176 z m 2.935547,3.48829 c 0.03008,-6e-5 0.05866,0.001 0.08789,0.004 0.64419,0.0581 1.280347,0.9271 1.910156,2.62305 0.64011,1.69808 0.900044,3.23453 0.777344,4.625 -0.10169,1.17425 -0.53761,2.09409 -1.30664,2.73828 -0.76903,0.64653 -1.77341,0.90107 -3.03711,0.79101 -0.85828,-0.0749 -1.73805,-0.49587 -2.65039,-1.27734 -0.27027,-0.23897 -0.970549,-0.97536 -2.074219,-2.19336 0.74822,-1.26992 1.513999,-2.46273 2.287109,-3.5664 1.733549,-2.49871 3.073347,-3.74253 4.00586,-3.74414 z" />
      <path
         style="fill:#000000;fill-rule:evenodd;stroke-width:1.94444"
         d="m 29.70473,245.07236 5.12537,3.27561 -3.633,5.72795 -5.12945,-3.21106 z"
         id="path1744" />
      <path
         style="fill:#000000;fill-rule:evenodd;stroke-width:1.94444"
         d="m 27.11707,236.26617 5.07558,3.34619 -3.70572,5.72192 -5.05264,-3.24236 z"
         id="path1742" />
      <path
         style="fill:#000000;fill-rule:evenodd;stroke-width:1.94444"
         d="m 54.14076,292.49134 c 1.94328,-0.3782 3.89064,-0.39492 5.85686,-0.0416 1.04125,0.17053 2.73934,0.65684 5.09211,1.46534 l -0.24519,0.73169 c -0.71283,0.0603 -1.54428,0.15789 -2.47956,0.27436 -0.93119,0.11842 -1.5608,0.1995 -1.87269,0.25978 -2.52933,0.49253 -6.02117,1.39047 -10.47511,2.6707 -4.46658,1.28236 -9.1035,2.68741 -13.92339,4.20466 -2.93261,0.91856 -5.91092,1.88514 -8.94328,2.9015 -1.16394,-0.27864 -2.42978,-0.60064 -3.78272,-0.98311 -1.36558,-0.38033 -2.64794,-0.73792 -3.84106,-1.08908 2.68742,-0.92284 6.38712,-2.15736 11.09053,-3.69134 4.68884,-1.52969 8.94328,-2.83694 12.74681,-3.93847 4.72014,-1.36966 8.31366,-2.28628 10.77669,-2.76441 z"
         id="path1740" />
      <path
         style="fill:#000000;fill-rule:evenodd;stroke-width:1.94444"
         d="m 37.85837,343.99247 5.77598,0.82503 -1.07664,5.36025 -5.77384,-0.99128 z"
         id="path1736" />
      <path
         style="fill:#000000;fill-rule:evenodd;stroke-width:1.94444"
         d="m 32.60001,336.94036 5.7925,1.0642 -1.08286,5.44328 -5.77169,-1.11398 z"
         id="path1734" />
      <path
         id="path1732"
         style="fill:#000000;fill-rule:evenodd;stroke-width:1.94444"
         d="m 65.962891,303.74805 -7.041016,1.88672 -27.003906,11.77734 0.115234,-1.87891 c -0.73364,-0.0935 -1.810645,-0.0414 -3.234375,0.12891 -1.40914,0.18297 -2.708876,0.42604 -3.910156,0.74609 -0.15166,1.3407 -0.304998,2.68153 -0.460938,4.01172 -0.28273,1.74184 -1.11575,2.79014 -2.5,3.16211 l -0.248046,0.64453 c 1.51317,0.20999 3.03903,0.26147 4.5625,0.16797 C 27.763717,324.2907 29.34548,324.02497 31,323.58008 l 0.392578,-2.11328 29.294922,-12.41797 3.582031,13.37109 -5.777343,2.33399 c -3.221561,1.30122 -5.81272,2.90954 -7.78711,4.83007 -2.49627,2.415 -3.267856,4.80811 -2.322266,7.14844 0.825221,2.04303 2.734044,3.28344 5.720704,3.73242 2.64173,0.41144 5.173064,0.11343 7.583984,-0.86132 2.75197,-1.11203 4.170513,-3.21541 4.257812,-6.31641 0.03325,-1.38017 -0.461981,-4.16202 -1.482421,-8.34375 0.81686,1.03717 1.477078,2.02828 1.986328,2.98437 0.49661,0.96016 1.04534,2.15069 1.61914,3.57227 l 4.251953,10.5293 -0.08008,0.0371 c -5.43492,2.53362 -9.536738,5.22941 -12.298828,8.09961 -3.41697,3.56455 -5.181697,7.73381 -5.279297,12.50781 l 6.775391,-2.54688 c -0.50517,-3.72245 0.436733,-6.98835 2.845703,-9.80468 1.92053,-2.26742 4.888266,-4.33611 8.910156,-6.21094 l 6.078125,13.0332 c 0.44066,0.9415 0.616597,1.76927 0.529297,2.45313 -0.09781,0.84175 -0.555152,1.60167 -1.357422,2.28125 l 0.359375,0.77148 c 0.9415,-0.14544 1.789621,-0.32993 2.525391,-0.56055 0.742,-0.23488 1.534656,-0.54845 2.384766,-0.94336 1.01208,-0.47173 1.644159,-1.39773 1.912109,-2.76953 0.26619,-1.35509 0.104186,-2.69065 -0.490234,-3.96679 l -6.302735,-13.51368 0.0078,-0.002 -8.460938,-20.94336 -0.06836,0.0274 z m -6.361329,24.1582 c 0.770971,2.47956 1.169144,4.08153 1.214844,4.80078 0.14759,2.05956 -0.66069,3.44006 -2.40039,4.14453 -0.69416,0.28053 -1.387859,0.28676 -2.080078,0.0332 -0.69009,-0.2555 -1.162096,-0.70914 -1.421876,-1.35547 -0.538219,-1.32806 -0.141294,-2.81549 1.197266,-4.44922 0.71069,-0.84797 1.871094,-1.90391 3.490234,-3.17383 z" />
      <path
         style="fill:#000000;fill-rule:evenodd;stroke-width:1.94444"
         d="m 418.75482,387.56028 c -1.62128,-1.13497 -2.98667,-2.52544 -4.0987,-4.18386 -0.60064,-0.86878 -1.42994,-2.42764 -2.48364,-4.68281 l 0.69825,-0.33036 c 0.53842,0.46959 1.1867,0.99964 1.91839,1.59192 0.7317,0.58819 1.22831,0.98525 1.49023,1.16822 2.10952,1.47564 5.18155,3.36272 9.19488,5.68031 4.02598,2.31952 8.25748,4.68047 12.69703,7.09352 2.69986,1.47156 5.46409,2.94098 8.29909,4.41875 0.61113,1.03095 1.25747,2.16359 1.92266,3.40239 0.67531,1.24698 1.30939,2.41928 1.88495,3.52081 -2.53148,-1.29267 -5.98986,-3.09672 -10.36078,-5.41431 -4.35847,-2.30902 -8.25125,-4.4623 -11.68689,-6.43475 -4.26494,-2.44202 -7.42,-4.38958 -9.47547,-5.82983 z"
         id="path1730" />
      <path
         style="fill:#000000;fill-rule:evenodd;stroke-width:1.94444"
         d="m 429.26726,336.85092 -3.75355,-4.72422 5.31455,-4.26903 3.7765,4.8615 z"
         id="path1728" />
      <path
         style="fill:#000000;fill-rule:evenodd;stroke-width:1.94444"
         d="m 445.22337,318.33028 1.34673,-5.02367 c 0.43438,-1.6273 1.44452,-2.74964 3.03255,-3.3878 1.37161,-0.55281 3.25889,-0.742 5.64492,-0.5777 2.39633,0.17248 5.29161,0.57984 8.67533,1.22423 2.74556,0.59013 5.55547,1.17425 8.44861,1.78947 2.88497,0.60472 5.09639,0.97261 6.64475,1.12447 1.53806,0.13708 2.82664,0.12678 3.87625,-0.0624 1.29286,-0.2203 2.48986,-0.67336 3.59567,-1.37375 l 5.77792,6.27259 c -3.11753,0.16411 -6.7237,-0.0935 -10.81812,-0.78361 -2.56472,-0.42603 -8.5048,-1.76867 -17.85563,-4.01139 -4.3647,-0.70856 -7.26406,-0.81667 -8.68156,-0.32823 -1.18475,0.40309 -1.88086,0.99128 -2.093,1.78734 l -1.34672,5.02347 -2.56686,-0.68794 3.39189,1.51102 -12.3165,27.66575 c 2.814,-1.52347 5.08161,-2.8453 6.77969,-3.97794 2.11789,-1.4175 3.82006,-2.81011 5.11506,-4.19008 1.45055,-1.54856 2.58961,-3.26103 3.43136,-5.15045 0.50925,-1.14722 0.952,-2.35278 1.30939,-3.59567 1.39047,1.3967 2.34869,2.86417 2.89741,4.37092 0.78556,2.19703 0.64847,4.46872 -0.39705,6.81936 -1.02667,2.30495 -3.367,4.53931 -7.02509,6.67372 -1.83108,1.05798 -5.12108,2.64795 -9.85172,4.76175 -3.69114,1.64812 -5.8485,2.90773 -6.4888,3.78681 l -0.90825,2.03894 -0.29498,-0.13086 0.0581,0.0373 -7.95005,12.24183 28.82969,13.46197 1.83536,-1.12447 c 1.43617,0.93333 2.6915,1.93083 3.78681,2.99094 1.09122,1.07023 2.07219,2.23631 2.92853,3.50214 l -0.64439,0.24734 c -1.20342,-0.77953 -2.53984,-0.69845 -4.02384,0.25977 -1.09316,0.77312 -2.19061,1.55673 -3.29,2.34014 -1.04125,-0.67744 -2.09086,-1.47972 -3.16964,-2.40664 -1.08072,-0.94363 -1.8373,-1.70858 -2.26138,-2.31544 l 1.47369,-1.17425 -26.81992,-12.18583 -6.11469,-3.96978 9.99522,-15.39067 0.14739,0.0957 16.88089,-37.91453 z"
         id="path1726" />
      <path
         style="fill:#000000;fill-rule:evenodd;stroke-width:1.94444"
         d="m 491.24973,210.70567 -5.859,-1.64597 1.80192,-6.52848 5.84247,1.57131 z"
         id="path1718" />
      <path
         style="fill:#000000;fill-rule:evenodd;stroke-width:1.94444"
         d="m 496.28993,218.37086 -5.82575,-1.72919 1.86219,-6.54072 5.77598,1.61077 z"
         id="path1716" />
      <path
         style="fill:#000000;fill-rule:evenodd;stroke-width:1.94444"
         d="m 91.29657,363.72275 2.53147,3.61453 c 2.35686,3.367 4.73258,6.09797 7.11647,8.17639 3.0345,2.62714 5.27917,3.42533 6.76531,2.38389 1.32805,-0.92906 2.59991,-2.16359 3.80761,-3.6892 1.19719,-1.51919 2.41928,-3.06969 3.64136,-4.63886 1.22617,-1.56936 2.48986,-2.81225 3.78894,-3.7205 0.76903,-0.54036 1.51939,-0.97047 2.2155,-1.30316 0.71303,-0.33037 1.67106,-0.70662 2.88284,-1.12234 -1.31989,1.69809 -2.63745,3.39617 -3.96356,5.08395 -2.51689,3.21514 -4.44578,5.63441 -5.75925,7.25141 -2.08891,2.54606 -3.39208,4.00109 -3.92,4.37092 -2.59797,1.81864 -4.97155,2.67497 -7.11841,2.569 -2.15737,-0.11647 -4.34817,-1.05797 -6.59284,-2.84531 -1.78111,-1.4175 -4.11114,-3.79516 -6.99164,-7.13319 -0.40114,2.18653 -0.61327,3.52294 -0.65061,3.99894 -0.0811,1.60864 0.24111,2.93048 0.98311,3.98845 0.46336,0.665 1.12428,1.16394 1.95164,1.484 0.66092,0.26192 1.63781,0.45928 2.90772,0.59442 l 0.0998,2.02027 c -1.95591,0.45714 -3.65186,0.62145 -5.10455,0.49253 -2.39245,-0.22867 -4.21089,-1.21586 -5.43297,-2.96178 -0.87928,-1.25533 -1.29073,-2.83908 -1.23881,-4.75339 0.0416,-1.57538 0.3887,-3.38158 1.01208,-5.42869 0.29517,-0.99556 0.89173,-2.57308 1.77081,-4.72228 z"
         id="path840" />
    </g>
    <g
       id="g1243">
      <path
         id="path1128"
         style="fill:#1b1918;fill-rule:evenodd;stroke-width:1.94444"
         d="M 228.75586 438.20312 L 228.75586 479.39844 L 234.46094 479.39844 L 234.46094 462.20312 L 235.64648 462.20312 C 236.96423 462.20312 237.92511 462.3545 238.51953 462.66211 C 239.11608 462.97789 239.6848 463.53489 240.2168 464.34961 C 240.75522 465.16647 241.76973 467.19978 243.25781 470.43164 L 247.41211 479.39844 L 254.21875 479.39844 L 250.78125 471.36133 C 249.397 468.13763 248.30442 465.90322 247.5 464.65625 C 246.702 463.40928 245.68907 462.26872 244.46484 461.21289 C 246.84679 460.71414 248.69098 459.47794 249.99414 457.51172 C 251.29109 455.54569 251.93359 452.94421 251.93359 449.72266 C 251.93359 447.18068 251.51436 444.99514 250.66016 443.16211 C 249.81647 441.33919 248.72986 440.05413 247.41211 439.31641 C 246.09027 438.57655 243.88488 438.20312 240.80469 438.20312 L 228.75586 438.20312 z M 234.46094 445.17578 L 238.94531 445.17578 C 241.504 445.17578 243.05783 445.27243 243.58789 445.48438 C 244.34428 445.78168 244.94202 446.327 245.38477 447.12305 C 245.81916 447.91911 246.04297 448.97558 246.04297 450.28906 C 246.04297 451.65036 245.81916 452.7529 245.38477 453.57812 C 244.94202 454.40315 244.36891 454.95061 243.66016 455.21875 C 242.95141 455.48689 241.30464 455.62109 238.71289 455.62109 L 234.46094 455.62109 L 234.46094 445.17578 z " />
      <path
         style="fill:#1b1918;fill-rule:evenodd;stroke-width:1.94444"
         d="m 260.13443,479.39911 v -41.19616 h 8.55478 l 5.14189,28.10422 5.09425,-28.10422 h 8.57966 v 41.19616 h -5.30619 v -32.42944 l -5.63247,32.42944 h -5.52028 l -5.5827,-32.42944 v 32.42944 z"
         id="path1126" />
      <path
         style="fill:#1b1918;fill-rule:evenodd;stroke-width:1.94444"
         d="m 296.43798,479.39911 v -41.19616 h 19.42481 v 6.97297 h -13.71961 v 9.74575 h 11.8615 v 6.97297 h -11.8615 v 17.50447 z"
         id="path1124" />
      <path
         style="fill:#1b1918;fill-rule:evenodd;stroke-width:1.94444"
         d="m 199.44268,479.39911 v -41.19616 h 19.42694 v 6.97297 h -13.71961 v 9.74575 h 11.85936 v 6.97297 h -11.85936 v 17.50447 z"
         id="path842" />
    </g>
  </g>
  <g
     id="g1712">
    <path
       d="m 292.7239,234.78139 c 4.87395,1.09939 9.90092,3.37245 13.89286,6.55647 4.34895,3.52567 7.52092,8.58667 9.05586,14.33017 1.94425,7.22186 1.22792,14.84194 -0.92089,21.95006 l -0.22283,0.78419 c -3.88947,-0.59986 -7.71497,-1.17444 -11.50275,-1.70839 3.5807,-5.41314 5.50647,-11.83233 5.1767,-18.6375 -0.30703,-5.45903 -2.09767,-11.43003 -5.52553,-15.46747 -2.79884,-3.30225 -6.17789,-6.03983 -9.95342,-7.80753 z m 7.7072,41.55258 c -3.05512,-0.41688 -6.08903,-0.80441 -9.11731,-1.15558 l 0.46569,-0.23294 c 3.99078,-3.58264 6.9582,-8.18864 8.0327,-13.93214 0.76747,-4.32172 0.4093,-9.55325 -1.48381,-13.53392 -1.7395,-3.69619 -4.80939,-6.59633 -8.33952,-7.90436 -4.39678,-1.72161 -9.18381,-0.62319 -13.26539,1.70664 -0.95434,-1.22053 -1.96331,-2.38895 -3.02323,-3.5037 5.17164,-2.66505 10.63456,-3.45236 16.18634,-1.50111 4.24647,1.47856 8.13478,4.43548 11.15353,8.01811 3.06969,3.63942 4.65577,8.9847 4.91166,13.87517 0.30411,6.70328 -1.75214,13.01533 -5.52066,18.16383 z"
       style="fill:#d39c67;fill-rule:evenodd;stroke-width:1.94444"
       id="path844" />
    <path
       d="m 222.91037,234.70886 c -4.97544,1.07023 -10.13833,3.37361 -14.21972,6.629 -4.34875,3.52567 -7.52092,8.58667 -9.05586,14.33017 -1.94406,7.22186 -1.22792,14.84194 0.92108,21.95006 l 0.20145,0.70933 c 0.0525,-0.01 0.10325,-0.0195 0.15672,-0.027 3.85253,-0.60686 7.68775,-1.17522 11.51286,-1.69672 -3.54278,-5.39408 -5.44542,-11.77964 -5.11758,-18.54728 0.25589,-5.45903 2.09766,-11.43003 5.52572,-15.46747 2.79378,-3.34775 6.25858,-6.11528 10.07533,-7.88006 z m -7.88589,41.54753 c 2.99387,-0.39103 5.98189,-0.75172 8.96837,-1.07839 l -0.46492,-0.23255 c -3.99058,-3.58264 -6.958,-8.18864 -8.0325,-13.93214 -0.76747,-4.32172 -0.40931,-9.55325 1.4838,-13.53392 1.7395,-3.69619 4.8092,-6.59633 8.33953,-7.90436 4.40747,-1.7255 9.20675,-0.61756 13.24672,1.72375 0.97689,-1.23531 2.02087,-2.42064 3.12959,-3.55522 -5.152,-2.63784 -10.59236,-3.40978 -16.12061,-1.4667 -4.24648,1.47856 -8.08364,4.43548 -11.10239,8.01811 -3.0697,3.63942 -4.65578,8.9847 -4.91147,13.87517 -0.30256,6.66983 1.73113,12.95233 5.46388,18.08625 z"
       style="fill:#d39c67;fill-rule:evenodd;stroke-width:1.94444"
       id="path846" />
    <path
       d="m 201.1186,279.77895 c -7.87909,1.25105 -6.44662,8.92791 -0.81862,6.76705 4.45123,-1.76283 9.00473,-3.07086 13.6605,-4.26494 15.14431,-3.9237 30.54431,-6.36903 46.14906,-6.36903 7.82794,0 15.50247,0.6825 23.22814,2.04731 8.08364,1.47836 16.01405,3.58244 23.94428,6.02758 2.71152,0.85303 5.42325,1.87658 8.18611,2.72961 1.33019,0.455 3.06969,0.51178 3.8883,-1.02356 0.51159,-0.96677 0.46045,-2.21783 0.0511,-3.18441 -0.61386,-1.36481 -1.84178,-2.10409 -3.17197,-2.33159 -18.72578,-2.90013 -37.19567,-5.40225 -56.17714,-5.5158 -19.80008,-0.057 -39.39542,2.04711 -58.9398,5.11778 z"
       style="fill:#d39c67;fill-rule:evenodd;stroke-width:1.94444"
       id="path848" />
    <path
       d="m 286.15168,273.75117 c 0,-20.58525 -11.15372,-37.98608 -28.44683,-45.3217 -18.16287,8.35917 -27.83259,23.65612 -28.49778,45.37867 v 0.83592 c 4.08547,-0.39025 8.17172,-0.7105 12.26633,-0.95142 -0.10014,-16.10019 2.75781,-34.70405 15.82214,-44.12586 l 0.40931,-0.2275 0.35816,0.2275 c 13.07192,9.40742 15.84781,27.96908 15.86317,44.05703 4.1018,0.24403 8.16492,0.581 12.2255,0.99264 z m -28.44683,-37.58806 c 1.99538,0 3.53033,1.70606 3.53033,3.9237 0,2.16105 -1.53495,3.86691 -3.53033,3.86691 -1.94406,0 -3.479,-1.70586 -3.479,-3.86691 0,-2.21764 1.53494,-3.9237 3.479,-3.9237 z m 0.0513,27.92106 c 1.94405,0 3.53014,1.70586 3.53014,3.92369 0,2.16086 -1.58609,3.86673 -3.53014,3.86673 -1.94425,0 -3.53033,-1.70587 -3.53033,-3.86673 0,-2.21783 1.58608,-3.92369 3.53033,-3.92369 z m -14.95356,9.53264 c 4.50548,-0.24597 9.02359,-0.39375 13.56464,-0.42953 -2.02086,-0.66675 -3.47161,-2.75042 -3.47161,-5.17942 0,-1.99733 0.94422,-3.74383 2.36989,-4.69544 -1.42003,-0.94033 -2.36989,-2.65067 -2.36989,-4.6305 0,-1.96545 0.93645,-3.68842 2.33956,-4.64956 -1.40875,-0.95627 -2.33956,-2.69344 -2.33956,-4.67639 0,-1.94813 0.93333,-3.67363 2.34539,-4.62466 -1.428,-0.94675 -2.39653,-2.68314 -2.39653,-4.6445 0,-3.0137 2.19995,-5.45903 4.86034,-5.45903 2.71172,0 4.91166,2.44533 4.91166,5.45903 0,1.94619 -0.95278,3.67111 -2.37747,4.62272 1.43072,0.94617 2.37747,2.68294 2.37747,4.64644 0,1.96739 -0.91525,3.69289 -2.30553,4.65364 1.407,0.95686 2.35687,2.69131 2.35687,4.67231 0,1.99519 -0.96387,3.71661 -2.38759,4.65228 1.40759,0.95627 2.33625,2.69169 2.33625,4.67366 0,2.41967 -1.4385,4.49673 -3.4473,5.17164 0.29633,5.9e-4 0.59247,10e-4 0.88919,0.004 4.22781,0.0117 8.37997,0.1402 12.49014,0.36283 0.0276,-15.39533 -2.55539,-33.28266 -14.84369,-42.44333 -12.34625,9.18517 -15.00353,27.1462 -14.90223,42.5147 z m 14.51664,-20.36689 c 0.16061,-0.0175 0.32317,-0.027 0.48806,-0.027 0.14272,0 0.28428,0.008 0.42408,0.0214 1.72103,-0.259 3.05492,-1.90633 3.05492,-3.88831 0,-1.99675 -1.35392,-3.65322 -3.094,-3.89336 -0.16022,0.0175 -0.32297,0.0265 -0.48747,0.0265 -0.14234,0 -0.28312,-0.008 -0.42253,-0.0208 -1.72122,0.25881 -3.05647,1.90556 -3.05647,3.88772 0,1.99637 1.3543,3.65303 3.09341,3.89395 z m 0.0117,9.31992 c 0.14039,-0.0136 0.28214,-0.021 0.42603,-0.021 0.16489,0 0.32802,0.01 0.48864,0.027 1.7393,-0.24072 3.09263,-1.89758 3.09263,-3.89394 0,-1.99695 -1.35411,-3.65322 -3.09419,-3.89336 -0.16003,0.0175 -0.32258,0.0264 -0.48708,0.0264 -0.1437,0 -0.28525,-0.008 -0.42545,-0.0204 -1.72005,0.26036 -3.05375,1.90613 -3.05375,3.88733 0,1.9808 1.33331,3.62736 3.05317,3.88792 z"
       style="fill:#d39c67;fill-rule:evenodd;stroke-width:1.94444"
       id="path850" />
    <path
       d="m 192.83021,264.59595 c 1.94425,0 3.53033,1.76283 3.53033,3.92369 0,2.16086 -1.58608,3.9237 -3.53033,3.9237 -1.94425,0 -3.53034,-1.76284 -3.53034,-3.9237 0,-2.16086 1.58609,-3.92369 3.53034,-3.92369 z"
       style="fill:#d39c67;fill-rule:evenodd;stroke-width:1.94444"
       id="path852" />
    <path
       d="m 193.34179,254.01895 c 1.94425,0 3.53033,1.70586 3.53033,3.92369 0,2.16086 -1.58608,3.86692 -3.53033,3.86692 -1.94425,0 -3.53014,-1.70606 -3.53014,-3.86692 0,-2.21783 1.58589,-3.92369 3.53014,-3.92369 z"
       style="fill:#d39c67;fill-rule:evenodd;stroke-width:1.94444"
       id="path854" />
    <path
       d="m 196.30921,243.83997 c 1.94425,0 3.53033,1.76284 3.53033,3.9237 0,2.16086 -1.58608,3.92369 -3.53033,3.92369 -1.94406,0 -3.53014,-1.76283 -3.53014,-3.92369 0,-2.16086 1.58608,-3.9237 3.53014,-3.9237 z"
       style="fill:#d39c67;fill-rule:evenodd;stroke-width:1.94444"
       id="path856" />
    <path
       d="m 202.03948,235.25331 c 1.94425,0 3.53034,1.76283 3.53034,3.92369 0,2.16086 -1.58609,3.9237 -3.53034,3.9237 -1.94405,0 -3.53013,-1.76284 -3.53013,-3.9237 0,-2.16086 1.58608,-3.92369 3.53013,-3.92369 z"
       style="fill:#d39c67;fill-rule:evenodd;stroke-width:1.94444"
       id="path858" />
    <path
       d="m 209.81629,229.055 c 1.94425,0 3.53033,1.76284 3.53033,3.9237 0,2.16086 -1.58608,3.92369 -3.53033,3.92369 -1.94425,0 -3.53014,-1.76283 -3.53014,-3.92369 0,-2.16086 1.58589,-3.9237 3.53014,-3.9237 z"
       style="fill:#d39c67;fill-rule:evenodd;stroke-width:1.94444"
       id="path860" />
    <path
       d="m 218.61646,225.13131 c 1.94405,0 3.53014,1.76283 3.53014,3.92369 0,2.16086 -1.58609,3.9237 -3.53014,3.9237 -1.94425,0 -3.53034,-1.76284 -3.53034,-3.9237 0,-2.16086 1.58609,-3.92369 3.53034,-3.92369 z"
       style="fill:#d39c67;fill-rule:evenodd;stroke-width:1.94444"
       id="path862" />
    <path
       d="m 227.97915,223.59597 c 1.94425,0 3.53033,1.70587 3.53033,3.86673 0,2.16105 -1.58608,3.92389 -3.53033,3.92389 -1.94405,0 -3.53014,-1.76284 -3.53014,-3.92389 0,-2.16086 1.58609,-3.86673 3.53014,-3.86673 z"
       style="fill:#d39c67;fill-rule:evenodd;stroke-width:1.94444"
       id="path864" />
    <path
       d="m 322.4774,264.59595 c -1.94425,0 -3.53033,1.76283 -3.53033,3.92369 0,2.16086 1.58608,3.9237 3.53033,3.9237 1.94406,0 3.53014,-1.76284 3.53014,-3.9237 0,-2.16086 -1.58608,-3.92369 -3.53014,-3.92369 z"
       style="fill:#d39c67;fill-rule:evenodd;stroke-width:1.94444"
       id="path866" />
    <path
       d="m 321.96582,254.01895 c -1.94425,0 -3.53034,1.70586 -3.53034,3.92369 0,2.16086 1.58609,3.86692 3.53034,3.86692 1.94405,0 3.53014,-1.70606 3.53014,-3.86692 0,-2.21783 -1.58609,-3.92369 -3.53014,-3.92369 z"
       style="fill:#d39c67;fill-rule:evenodd;stroke-width:1.94444"
       id="path868" />
    <path
       d="m 318.99821,243.83997 c -1.94406,0 -3.53014,1.76284 -3.53014,3.9237 0,2.16086 1.58608,3.92369 3.53014,3.92369 1.94425,0 3.53033,-1.76283 3.53033,-3.92369 0,-2.16086 -1.58608,-3.9237 -3.53033,-3.9237 z"
       style="fill:#d39c67;fill-rule:evenodd;stroke-width:1.94444"
       id="path870" />
    <path
       d="m 313.26793,235.25331 c -1.94406,0 -3.479,1.76283 -3.479,3.92369 0,2.16086 1.53494,3.9237 3.479,3.9237 1.99539,0 3.53033,-1.76284 3.53033,-3.9237 0,-2.16086 -1.53494,-3.92369 -3.53033,-3.92369 z"
       style="fill:#d39c67;fill-rule:evenodd;stroke-width:1.94444"
       id="path872" />
    <path
       d="m 305.54246,229.055 c -1.94425,0 -3.53034,1.76284 -3.53034,3.9237 0,2.16086 1.58609,3.92369 3.53034,3.92369 1.94405,0 3.479,-1.76283 3.479,-3.92369 0,-2.16086 -1.53495,-3.9237 -3.479,-3.9237 z"
       style="fill:#d39c67;fill-rule:evenodd;stroke-width:1.94444"
       id="path874" />
    <path
       d="m 296.69115,225.13131 c -1.94425,0 -3.53014,1.76283 -3.53014,3.92369 0,2.16086 1.58589,3.9237 3.53014,3.9237 1.94425,0 3.53033,-1.76284 3.53033,-3.9237 0,-2.16086 -1.58608,-3.92369 -3.53033,-3.92369 z"
       style="fill:#d39c67;fill-rule:evenodd;stroke-width:1.94444"
       id="path876" />
    <path
       d="m 287.32826,223.59597 c -1.94405,0 -3.53014,1.70587 -3.53014,3.86673 0,2.16105 1.58609,3.92389 3.53014,3.92389 1.94425,0 3.53034,-1.76284 3.53034,-3.92389 0,-2.16086 -1.58609,-3.86673 -3.53034,-3.86673 z"
       style="fill:#d39c67;fill-rule:evenodd;stroke-width:1.94444"
       id="path878" />
    <path
       d="m 203.21626,287.04417 v 6.38244 h 108.92622 v -6.23291 c -1.76963,-0.61542 -3.53694,-1.23511 -5.21869,-1.785 -16.01406,-4.89048 -30.23728,-8.01811 -46.81425,-7.96114 -15.34886,0 -30.54431,2.33139 -45.84203,6.31205 -3.67461,0.97456 -7.34883,1.98684 -11.05125,3.28456 z"
       style="fill:#d39c67;fill-rule:evenodd;stroke-width:1.94444"
       id="path880" />
    <path
       d="m 256.85901,199.82728 -3.09828,5.9885 c 0.68678,-0.30333 1.40875,-0.52811 2.15639,-0.66364 z m 0.74356,13.02117 c 1.89311,0 3.37672,1.64908 3.37672,3.75297 0,2.0473 -1.48361,3.75317 -3.37672,3.75317 -1.84178,0 -3.37672,-1.70587 -3.37672,-3.75317 0,-2.10389 1.53494,-3.75297 3.37672,-3.75297 z m 7.21408,14.67122 -5.75264,-5.94067 c 0.99361,-0.35389 1.84781,-1.05875 2.43775,-1.98333 z m -8.5538,-5.90061 -5.72075,5.90061 3.26997,-7.80889 c 0.59986,0.90358 1.45541,1.58297 2.45078,1.90828 z m -3.36681,-4.98886 -6.80517,-4.17998 7.72761,1.01053 c -0.58002,0.88064 -0.92283,1.96914 -0.92283,3.14067 z m 3.25558,-5.06061 1.50209,-8.44531 1.51861,8.48828 c -0.49253,-0.19406 -1.02064,-0.29964 -1.56975,-0.29964 -0.50692,0 -0.9942,0.09 -1.45095,0.25667 z m 5.28053,1.9108 7.78439,-1.03017 -6.85689,4.23967 0.001,-0.0885 c 0,-1.16278 -0.34631,-2.2435 -0.92867,-3.12103 z m -2.03836,-8.31094 c 0.75969,0.14505 1.49139,0.3815 2.18458,0.69766 l -3.13036,-6.04294 z m -9.81828,4.02422 -5.93075,1.39164 4.70536,0.64925 c 0.34378,-0.72956 0.75542,-1.41303 1.22539,-2.04089 z m -6.54461,3.05083 4.15839,5.12361 c -0.0156,-0.25375 -0.0239,-0.50886 -0.0239,-0.76669 0,-0.58022 0.0391,-1.15092 0.11317,-1.708 z m 5.76353,10.54978 -0.63914,6.82092 2.0335,-4.8792 c -0.52403,-0.58975 -0.99225,-1.24016 -1.39436,-1.94172 z m 0.59772,7.95142 5.78375,-2.86514 c -0.75367,-0.20242 -1.47603,-0.4972 -2.15775,-0.87189 z m 10.7417,-2.88925 5.84519,2.91608 -3.70417,-3.80022 c -0.67472,0.37741 -1.39164,0.67589 -2.14102,0.88414 z m 7.00758,1.6448 -0.64128,-6.84405 c -0.399,0.72158 -0.86761,1.39066 -1.39455,1.99752 z m 0.86878,-12.03164 4.21769,-5.17164 -4.291,2.66584 c 0.0677,0.53491 0.10306,1.08169 0.10306,1.63761 0,0.29225 -0.01,0.58139 -0.0298,0.86819 z m 3.67772,-6.88275 -6.07911,-1.44239 c 0.48669,0.64556 0.91019,1.35042 1.26233,2.10487 z m -12.01589,-3.8428 c 2.44203,0.63564 4.51169,2.3693 5.76178,4.70322 l -4.8125,0.66189 z m 7.00428,9.00278 c 0.0216,0.28194 0.0333,0.567 0.0333,0.85458 0,2.52175 -0.83864,4.82183 -2.22095,6.58486 l -2.02552,-4.82203 z m -5.49014,10.10838 c -1.10095,0.52228 -2.31253,0.81142 -3.58361,0.81142 -1.24192,0 -2.42395,-0.27611 -3.5,-0.77544 l 3.55114,-3.66003 z m -10.38197,-2.59525 c -1.40564,-1.77236 -2.2575,-4.10141 -2.2575,-6.65855 0,-0.3012 0.0136,-0.59986 0.036,-0.89483 l 4.26183,2.65766 z m -0.98953,-11.82319 c 1.25611,-2.36172 3.34814,-4.10667 5.82517,-4.71839 l -0.95356,5.39078 z"
       style="fill:#d39c67;fill-rule:evenodd;stroke-width:1.94444"
       id="path882" />
    <path
       d="m 257.65371,280.575 9.77219,4.1512 -9.77219,4.15119 -9.772,-4.15119 z"
       style="fill:#ffffff;fill-rule:evenodd;stroke-width:1.94444"
       id="path884" />
    <path
       d="m 257.65371,281.76928 c 1.4838,0 2.66058,1.36481 2.66058,2.95692 0,1.64908 -1.17678,2.95711 -2.66058,2.95711 -1.43248,0 -2.66039,-1.30803 -2.66039,-2.95711 0,-1.59211 1.22791,-2.95692 2.66039,-2.95692 z"
       style="fill:#e30016;fill-rule:evenodd;stroke-width:1.94444"
       id="path886" />
    <path
       d="m 215.39315,284.38514 10.28378,1.99014 -8.85131,6.14153 -10.28377,-1.93336 z"
       style="fill:#ffffff;fill-rule:evenodd;stroke-width:1.94444"
       id="path888" />
    <path
       d="m 215.59771,285.57922 c 1.43266,-0.34125 2.814,0.73928 3.12102,2.33159 0.2557,1.59211 -0.66519,3.12744 -2.09766,3.46869 -1.43267,0.28428 -2.86514,-0.73928 -3.12103,-2.33139 -0.30703,-1.5923 0.61406,-3.18461 2.09767,-3.46889 z"
       style="fill:#e30016;fill-rule:evenodd;stroke-width:1.94444"
       id="path890" />
    <path
       d="m 228.90023,282.62231 15.55342,-1.08053 2.86514,3.29817 -2.45583,3.75316 -15.50228,1.13731 -3.22331,-3.35514 z"
       style="fill:#ffffff;fill-rule:evenodd;stroke-width:1.94444"
       id="path892" />
    <path
       d="m 230.48612,283.58889 12.02348,-0.85283 0.97202,2.38816 -0.66519,2.50212 -12.02328,0.91 -1.0743,-2.38837 z"
       style="fill:#e30016;fill-rule:evenodd;stroke-width:1.94444"
       id="path894" />
    <path
       d="m 299.9656,284.38514 -10.33492,1.99014 8.85111,6.14153 10.33511,-1.93336 z"
       style="fill:#ffffff;fill-rule:evenodd;stroke-width:1.94444"
       id="path896" />
    <path
       d="m 299.76104,285.57922 c -1.48381,-0.34125 -2.86514,0.73928 -3.17217,2.33159 -0.25589,1.59211 0.6652,3.12744 2.09767,3.46869 1.43247,0.28428 2.86514,-0.73928 3.12103,-2.33139 0.30683,-1.5923 -0.61406,-3.18461 -2.04653,-3.46889 z"
       style="fill:#e30016;fill-rule:evenodd;stroke-width:1.94444"
       id="path898" />
    <path
       d="m 286.40737,282.62231 -15.55361,-1.08053 -2.86514,3.29817 2.45584,3.75316 15.55361,1.13731 3.17216,-3.35514 z"
       style="fill:#ffffff;fill-rule:evenodd;stroke-width:1.94444"
       id="path900" />
    <path
       d="m 284.82129,283.58889 -12.02328,-0.85283 -0.97203,2.38816 0.665,2.50212 12.02348,0.91 1.0743,-2.38837 z"
       style="fill:#e30016;fill-rule:evenodd;stroke-width:1.94444"
       id="path902" />
  </g>
</svg>
